<?xml version="1.0" encoding="UTF-8"?>
<svg id="Ebene_2" data-name="Ebene 2" xmlns="http://www.w3.org/2000/svg" viewBox="0 0 558.99 394">
  <g id="Ebene_2-2" data-name="Ebene 2">
    <path d="M218.4,31.75c-2.53.41-5.04-.39-7.42-.5-7.81-.36-15.72.34-23.54.04-4.48-.17-14.36-.59-18.23-1.92-8.5-2.92-6.56-14.18,1.48-14.44,2.1-.07,4.42,1.27,6.68,1.48,10.93,1.02,26.02.37,37.41.48,4.87.05,12.45-2.16,16.09,1.66s.83,7.01.93,11.04c.28,11.16,2.41,23.67,2.47,34.53.02,2.9-.96,6.6-1.02,9.57-.1,5.04,1.06,9.82,1,14.92-.26,22.15-2.14,44.46-2.4,66.64-.72,62.16-.91,125.11,3.82,187.11.91,11.97,5.65,30.87-4.55,40.08-8.05,7.26-15.34,10.53-26.35,9.06-6.28-.84-13.64-9.28-15.73-14.97-2.32-6.31-3.25-10.78-3.24-17.35,0-5.6-1.07-16.46,2.17-20.86,3.74-5.07,11.25-2.93,12.47,2.82.94,4.45.2,13.05.24,18.04.04,4.23.84,8.21,2.51,12.31.46,1.13,2.94,4.76,4.03,5.08.45.13,3.72.51,4.23.5,1.95-.07,8.75-4.38,9.83-5.9.72-1.01,1.29-3.54,1.42-4.82.74-7.45-1.33-16.92-1.91-24.47-3.29-42.99-3.63-86.28-3.82-129.54-.1-21.49-.38-43.29-.02-64.75.4-23.77,2.3-46.77,1.42-70.5-.16-4.39,1.01-8.48,1.02-12.49.02-6.59-1.48-14.73-1.51-21.58,0-1.7,1.12-10.68.52-11.28h0Z"/>
    <path d="M452.93,377.64c3.44-.12,6.86-.77,10.33-.5,2.27.18,4.87,1.34,6.76,1.43,3.05.15,7-.73,10.5-.47,6.08.45,14.54,3.28,11.02,11.05-2.82,6.23-10.08,2.85-14.87,2.85-2.35,0-5.03.92-7.19.89-2.01-.03-4.06-1.1-5.8-1.3-7.41-.85-13.88,3.39-20.82.2-3.45-1.58-4.94-4.43-5.27-8.16-.39-4.35.21-13.51.48-18.22.36-6.43,1.81-12.81,2.39-19.2,3.63-40.36,5.74-80.96,8.64-121.36,1.68-23.34,2.52-46.71,4.31-70.05,1.67-21.75,3.43-43.56,5.77-65.23,1.52-14.09,8.69-39.19,6.01-52.08-.23-1.1-.64-2.69-1.12-3.69-.24-.49.16-.78-.74-.54-2.88.77-7.22,4.65-8.42,7.42-.78,1.79-2.26,7.8-2.34,9.67-.05,1.33.69,2.12.82,3.28.95,8.44-12.77,11.19-14.64,3.1-.89-3.84.91-15.04,2.07-19.11,1.83-6.47,5.47-10.73,11.01-14.42,6.04-4.02,17.51-8.82,22.9-1.5,11.78,15.99,1.5,49.76-.63,68.39-1.09,9.51-1.97,19.2-2.93,28.73-4.32,42.91-5.48,86.01-8.64,129.04-2.29,31.27-4,62.76-6.72,94.02-1.04,11.92-3.7,23.69-2.88,35.75h0Z"/>
    <g>
      <path d="M250.89,14.12c4.05-.84,8.96,1.43,9.27,5.89.13,1.89-.9,2.99-.96,4.34-.16,3.39,1.27,9.53,1.43,13.38.53,12.44-.43,25.05-.52,37.42-.4,58.4-1.52,116.73-1.4,175.14.06,27.07.42,56.47,3.34,83.45.84,7.79,4.79,32.06,12.2,35.77,2.25,1.13,17.02,5.86,19.35,6.1,1.36.14,5.13-.13,5.83-1.12,2.14-8.21,4.03-15.81,3.38-24.43-.95-12.72-4.34-22.6-3.85-36.49.33-9.41,1.9-18.88,2.41-28.29,1.74-31.75,1.32-63.75,1.47-95.48.14-32.38,2.21-64.96,2.85-97.37.41-21.01-.02-41.94.52-62.84.04-1.64-.71-3.22-.52-5.28.78-8.49,12.54-8.68,14.75-.36.93,3.48.08,5.91.09,8.98.23,42.74-.42,85.32-1.88,128.13-.33,9.65-.91,19.11-.96,28.74-.17,31.72.31,63.74-1.47,95.48-.85,15.19-3.63,30.26-1.85,45.52.73,6.25,2.87,12.47,3.29,18.77.63,9.41-1.31,19.45-3.57,28.56-1.3,5.27-2.74,9.03-8.43,10.76-11.5,3.48-20.11.05-30.93-3.57-9.33-3.13-12.58-4.71-17.58-13.6-9.17-16.31-10.28-38.72-11.45-57.15-3.71-58.29-1.59-117.12-.92-175.58.36-31.81,1.23-63.72,1.44-95.47.05-7.06-1.23-16.54-.5-23.05.31-2.81,2.28-5.77,5.15-6.36h.02Z"/>
      <path d="M349.93,371.77c.35.44,3.62.88,4.51,1.01,3.28.49,8.85,1.4,11.95,1.51,4.61.17,8.3-.6,13.3.58,8.41,1.99,7.4,16.5-3.6,15.12-1.5-.19-3.16-1.17-4.5-1.3-1.67-.16-3.63.54-5.69.46-4.91-.2-20.12-2.19-24.22-4.07-1.87-.85-3.29-2.09-4.23-3.92-4.43-8.64-3.64-23.21-3.94-32.99-2.43-79.01,2.54-158.52-3.33-237.49,1.1-22.37,1.66-44.75,2.41-67.14.2-5.89-1.11-18.91.85-23.62,2.19-5.29,9.5-5.45,12.18-.48,1.69,3.12.37,4.33.36,7.27-.06,12.96.77,25.84.52,38.9-.25,12.87-.79,25.51-1.45,38.36-.29,5.57.81,10.48.97,15.81,1.06,35.22,1.62,70.27,1.88,105.58.31,42.13-.36,83.99,1,126.13.12,3.85-.79,18.01,1.05,20.29h-.02Z"/>
    </g>
    <path d="M154,370.07c9.59-1.98,17.44,8.77,8.93,14.2-6.42,4.1-16.49-.19-14.32-8.57.56-2.18,3.1-5.16,5.4-5.63h0Z"/>
    <g>
      <path d="M386.62,20.83c4.04-.83,7.7,1.91,8.24,5.93.4,2.95-.14,6.52.02,9.57,2.19,39.96,4.94,79.38,5.28,119.45.27,32.28.93,64.54,2.44,96.87,1.26,27.03,2.08,54.04,3.84,81.07.77,11.83,1.02,25.23,2.43,36.91.54,4.46,3.77,8.76.63,13.21-1.93,2.74-5.19,3.53-8.37,2.69-6.84-1.81-7.18-17.81-7.65-23.53-.83-9.92-1.28-19.83-1.9-29.76-3.72-59.25-5.8-118.64-6.27-177.94-.16-20.09-.22-39.97-1.42-59.98s-4.98-45.88-2.81-66.63c.35-3.34,1.9-7.11,5.57-7.86h-.03Z"/>
      <path d="M380.37.2c7.93-1.79,13.52,8.67,6.06,13.73-10.87,7.36-14.84-11.74-6.06-13.73Z"/>
    </g>
    <path d="M510,26.96c-.02,1.18-.04,2.36.06,3.54.74,8.61,2.84,17.01,3.32,25.95.21,4.06-.07,8.41-.04,12.51.13,16.52-2.23,32.78-2.4,49.41-.07,7.13-.95,14.46-.98,21.57-.02,3.77.96,8.64,1.02,12.45.52,33.17-.79,66.46.46,99.56,10.66-4.62,28.99-10.8,37.02,1.11,6.1,9.04,8.5,33.38,9.04,44.69.4,8.36-.25,17.06-.04,25.47.64,25.02,8.05,50.25-16.61,65.86-4.48,2.84-16.18,5.28-21.49,4.87-22.15-1.71-22.45-26.99-22.79-43.88-.07-3.27-.59-6.51.11-9.97,1.57-7.77,13.77-6.8,14.77,1.32.27,2.18-.53,4.07-.49,5.77.17,7.82.74,20.1,3.21,27.49,1.15,3.44,3.53,4.9,7.1,4.92,8.55.05,17.06-4.56,20.79-12.33,4.51-9.41.91-32.93.53-44.05-.63-18.54.24-36.09-3.48-54.57-.5-2.49-2.08-8.18-4.96-8.38-5.48-.38-15.7,3.57-19.85,7.27-3.67,3.28-5.32,8.06-11.53,6.75-7.66-1.62-5.43-13.06-5.71-18.75-1.7-34.35-.56-68.73-.96-103.14-.05-3.91-1.05-9.05-1-12.91.07-5.01,1.36-10.8,1.48-15.83.14-5.87-.76-11.73-.49-17.76.78-17.37,3.35-32.51,2.39-50.37-.57-10.61-3.26-23.17-2.89-33.56.09-2.51,1.68-5.49,3.99-6.6,2.05-.99,11.54-2.28,14.03-2.31,9.1-.13,18.49,1.26,27.57,2.16,7.66,2.43,6.65,12.58-.29,13.66-9.4,1.45-21.08-3.36-30.91-1.89l.02-.03Z"/>
    <g>
      <path d="M82.2,284.57c11.29-15.14,27.78-9.8,40.72-.2,7.09,5.26,11.57,14.74,14.44,22.97,5.99,17.16,4.5,49.43-3.76,65.82-7.56,15-23.55,21.93-40.01,19.7-15.8-2.14-20.49-19.89-21.94-33.22-4.31-39.63-5.39-80.17-3.36-119.93,1.21-23.72,2.82-47.77,4.81-71.47,1.79-21.32,5.86-41.81,7.66-63.33,2.5-29.75,4.06-59.77,9.63-89.19,1.2-6.32,10.5-7.07,13.01-1.09,1.39,3.32.2,3.61-.04,6.38-2.31,26.4-5.44,52.72-7.72,79.11-.82,9.52-.81,19.26-1.93,28.77-1.14,9.69-3.21,18.75-4.31,28.79-3.08,28.02-4.02,56.32-6.73,84.41l-.46,42.48h-.01ZM98.36,289.95c-2.11.48-5.54,5.05-6.33,7.11-2.11,5.47-.89,16.2-4.8,19.67-.96.85-3.84,1.49-4.02,2.19.77,2.5.28,5.09.42,7.64.32,5.62,1.4,11.21,1.91,16.8.75,8.23.46,26.16,6.05,32.33,2.85,3.15,8.85,2.89,12.9,2.45,17.71-1.92,20.84-24.64,21.36-38.6.49-13.06-.32-30.2-9.15-40.78-2.98-3.58-13.67-9.84-18.35-8.79v-.02Z"/>
      <path d="M43.25,9.35c4.98-.51,9.58.97,13.69,3.78,5.56,3.79,6.48,12.64,6.07,18.86-2.14,31.9-10.75,62.92-16.64,94.17-12.04,63.89-18.23,127.1-24.6,191.75-1.04,10.52-1.37,21.15-2.94,31.6-.73,4.87-2.38,9.42-3.17,14.1-.21,1.25-1.34,7.47.1,7.71,13-3.84,26.49-.66,39.61.77,7.98,2.4,6.99,13.52-.3,14.63-2.29.35-10.02-.68-12.87-.98-5.54-.57-9.31-1.8-15.42-1.41-7.35.47-15.38,5.31-22.25.23-9.07-6.7-1.94-26.63-.56-35.52,1.61-10.42,1.88-21.12,2.93-31.61,6.49-64.83,12.5-128.13,24.61-192.22,5.89-31.16,14.7-62.4,16.63-94.18.39-6.41-1.17-8.75-7.68-5.76-7.31,3.36-17.38,21.13-19.62,28.83-1.98,6.81-4.29,17.01-5.26,24.01-.28,2,.19,4.07-.17,6.07-1.31,7.2-11.95,7.9-13.59-.1-1.08-5.27,2.64-25.86,4.14-31.89C9.99,36.01,25.06,11.22,43.24,9.36h.01Z"/>
    </g>
  </g>
</svg>