<?xml version="1.0" encoding="UTF-8"?>
<svg id="Ebene_2" data-name="Ebene 2" xmlns="http://www.w3.org/2000/svg" viewBox="0 0 184.78 626.04">
  <defs>
    <style>
      .cls-1 {
        fill: #210700;
      }

      .cls-2 {
        fill: #04060d;
      }

      .cls-3 {
        fill: #098437;
      }

      .cls-4 {
        fill: #0a8337;
      }

      .cls-5 {
        fill: #fff;
      }

      .cls-6 {
        fill: #4082be;
      }

      .cls-7 {
        fill: #1b0500;
      }

      .cls-8 {
        fill: #150400;
      }

      .cls-9 {
        fill: #020408;
      }

      .cls-10 {
        fill: #e32d14;
      }
    </style>
  </defs>
  <g id="Ebene_1-2" data-name="Ebene 1">
    <g>
      <g>
        <path class="cls-5" d="M94.8,20.09s-.2.6.4.9c2.4,1.2,6,1.7,8.3,2.9,3.6,1.9,10.2,10.8,11.5,14.7.8,2.3,1.2,5,1.5,7.4,2,.3,3.6-1.4,5.5-1.4.9,0,1.8.5,2.9.5,8.2,0,18.9,0,24.7,6.4,3.9,4.3,9.3,14.3,9.1,20.1,0,1.3-2.9,7.5-2.4,7.9,6.1.5,13.3,2.2,18.2,6,9.3,7.3,13.8,34.2,7,43.9-5.1,7.2-13.7,8.4-22.1,9.1-4.9.4-10.1-.2-15.1,0-.1,6.9-.5,12.1-4.4,17.9-4.9,7.3-18.2,16.3-27.2,15.7-1.5,0-5.3-.6-6.7-1-5.8-1.4-15.8-9.2-18.1-14.7-1.2-2.9-1.6-6.7-2.5-9.7-10.2,6.3-23.8,7.1-33.3-1s-10.4-17.7-8.8-29.5l2.3-8c-2.2-.7-4.6-.9-6.7-1.7-9.6-3.5-21.4-11.8-22.9-22.7-.4-3.1-.5-11.6,0-14.6.8-4,8.2-16.9,11.1-20.1s14.6-8.4,18.9-8.9c2.8-.3,6.3.9,9.1,1.2,1.8-7.8,7.8-18.3,15.8-20.6.2,1.1,2.1,3.6,3.2,4.3,5.9,3.3,14.1-1.1,17.4-6.2,1,0,2.5.5,3.4,1h0l-.1.2Z"/>
        <path class="cls-2" d="M103.4,23.89c-2.3-1.2-5.9-1.7-8.3-2.9-.6-.3-.3-.9-.4-.9l-1-4.8c-1.2.9-1.6,2.6-2.4,3.8-3.4,5-11.5,9.4-17.4,6.2-1.1-.6-3-3.1-3.2-4.3-2.4-13,9.9-26.6,22.7-18.6,6.7,4.2,9.4,14.1,9.9,21.5h.1ZM87.6,8.09c-6.1-1-9.6,5.1-9.1,10.6,5.3-.7,8.5-5.5,9.1-10.6Z"/>
        <path class="cls-6" d="M93.8,15.29l1,4.8"/>
      </g>
      <g>
        <path class="cls-9" d="M112.5,172.19c.6.8.5,1.7.5,2.6.5,15-2,44.6-13.2,55.5-1.1,1-2.5,1.8-3.6,2.7,4.8,12.4,4.1,27.5-6.1,36.9,2,20.9,2.3,41.9,2.8,62.8.6,31.2.8,62.4-.5,93.6-2.3,55.4-7.8,110.5-13.9,165.6-.5,4.3-1.3,8.7-1.9,13,2.2-.2,3.6-.9,6-.7,6.8.5,13.5,8.3,10.2,15-3.8,7.8-13.5,8.7-20,3.9-1.1-.8-1.4-1.9-2.1-2.5-2-1.8-3.7-1-3.7-5.2,0-7.8,2.9-20,3.9-28.3,6.1-52.8,11.2-106.3,13.4-159.4,1.9-45,.8-89.9-1-134.8-.2-6,.2-12,0-18-7.9,2.5-16.8,4.6-24.5.5,0,7.8-2.7,15.2-3.8,22.9-.8,5.1-1.6,11.7-2,16.8-6.1,78.9-5.8,158.5-1.9,237.6.1,2.8,1.5,7.7.5,10.1-.4,1.1-1.3,1.5-1.7,2.2-.6,1.2-.7,2.6-1.5,3.8-2.5,3.9-9.8,7.6-14.4,7.7-7.7.3-14.1-8.6-9.3-15.1,4.2-5.8,11.8-8,18.7-6.5-1.1-12.2-.9-24.5-1.4-36.7-2.4-59.5-2.4-118.1,1.4-177.6,1-14.9,1.6-30.9,3.9-45.5.5-3,5.1-21.4,4.5-22.4-4.4-1.5-6.1-4.8-9.4-7.7-.7,9.2-3.3,18.1-4.7,27.2-3.3,20-5.8,40.3-7.7,60.4-2.2,22.8-2.6,45.7-3.8,68.7-.5,9.2-1.9,18.6-2.4,27.8-.6,10.8.5,24.7-1.6,34.9-1.1,5.4-4.2,8.3-8.5,11.6-5.4,4.2-10.9,4-13.1-3.2-1.5-5-.3-9.3,4.8-11.4,3-1.2,6.4-2.1,9.3,0,.7-12.9.2-25.9,1.9-38.6,2.3-60.9,6.5-121.5,18.9-181.3.3-1.3,1.2-3.5,1.3-4.5,0-1.3-2.4-3.6-3.2-4.9-2.4-3.9-3.3-7.7-4.2-12.1-.6-.8-.5-.2-1,0-.8.5-1.3,1.2-2.5,1.3-2.6.1-4.8-2.4-4.9-4.9,0-2.7,1.4-10.8,2-13.8,1.8-8.9,7.1-16.6,13.6-22.7-2.9-4.7-4.1-10.4-4.6-15.9-.8-8.1.3-13.8,3.7-21.1,1.3-2.8,1.7-4.4,5.2-4.9,4.9-.7,12.5-.9,14.1,5-2.3,10.5-1.5,21,.5,31.4,9.7,0,18.7,1.8,26.6,7.7,3.9,3,15.2,13.8,10.8,19-.3.4-.9.6-1.4.7l2.1,4.8c5-5.4,7.7-14.4,9.1-21.6,2.1-10.4,1.2-20.2,2.1-30.5,0-1,.5-1.8,1-2.6,1.4.3,5.2.9,6.7,1h0v-.3ZM46.3,164.99h-3.3c-2.3,5.1-3.7,9-3.5,14.7.3,7.8,2.5,14.1,6,20.9.5,1,4.3,6.5,5.5,5.3-.4-3.2-2.2-5.9-3-9.2-2.6-10.3-2.7-21.1-1.8-31.6h0l.1-.1ZM81.8,212.49c.2-.8-.3-1-.7-1.5-2.2-2.3-6.6-5.6-9.5-6.8-4.1-1.7-8.8-2.6-13.3-2.3-.4.3,5.3,4.3.2,8.1-.5.4-5.5,3.6-5.9,3.7-1.4.6-3.6.7-4.9-.1-2.2-1.8-4.8-5.5-7-7-.4-.3-.7-.7-1.2-.2-4.5,4.9-7.4,11.1-9.1,17.5.6.6,2.8-2.2,3.4-2.6,3.6-2,9.1,1.3,12.7,2.4,3.1-1.9,2.6-6.6,6.7-7,4.6-.5,8.5,2.3,12.4,4.3,1.1-.2,4.7-7.7,7.1-8.7,2.9-1.2,6,.4,9,.1h0l.1.1ZM82.7,220.79l-6.3-1c-2.8,2.9-5.2,9.2-9.7,9.5-3.7.2-8-4.4-10.5-4.3-1.9,0-3.7,6.9-6.9,7.5-2.6.4-8.2-3.2-10.9-3.5-2.5-.4-2.5,3.3-2.4,5.3.4,8.3,10.1,24.8,16.7,29.9,1.8,1.4,13,6,15.1,6,12.1,0,22.5-6.7,23.3-19.4.7-11.1-4.2-20-8.3-29.9h0l-.1-.1ZM8,489.49h.7c.6-.6,1.4-1,1.2-1.9l-1.9.5v1.4h0ZM39.5,562.09c-3.3,0-6.6,1.2-8.5,4,.5,4.8,10.8.6,10.5-2.4-.3-1.2-.8-1.6-2-1.6h0ZM81.2,611.99c-1.1,0-5.2,2.2-5,3.3.7,2.9,7.7,4.3,9.2.9.9-2-2.2-4.4-4.2-4.2Z"/>
        <g>
          <path class="cls-10" d="M82.7,220.79c4.1,9.9,9,18.8,8.3,29.9-.8,12.7-11.2,19.5-23.3,19.4-2,0-13.2-4.6-15.1-6-6.6-5.1-16.3-21.5-16.7-29.9-.1-2-.1-5.6,2.4-5.3,2.7.4,8.3,4,10.9,3.5,3.2-.5,5-7.4,6.9-7.5,2.5,0,6.9,4.5,10.5,4.3,4.6-.3,6.9-6.6,9.7-9.5l6.3,1h0l.1.1ZM76.9,231.29c-1.4.3-3,2.1-3.1,3.6,0,1.7,3,6.4,3.2,9.6s-2.2,9.7-5.6,10.6c-1.1.3-2.4-.1-3.5.4-3.9,1.7-1.7,8.6,5.5,6.5,7.7-2.2,12-11.9,11.2-19.4-.4-3.6-3-12.2-7.8-11.2h0l.1-.1ZM70.7,239.19c0-2-1.7-3.7-3.7-3.7s-3.7,1.6-3.7,3.7,1.6,3.7,3.7,3.7,3.7-1.6,3.7-3.7ZM60.1,241.49c-3.2-3.5-10.3,1.6-6.4,5.5,3.5,3.5,10-1.5,6.4-5.5Z"/>
          <path class="cls-3" d="M81.8,212.49c-3,.2-6.1-1.3-9-.1-2.5,1-6,8.5-7.1,8.7-3.9-2-7.8-4.8-12.4-4.3-4.1.5-3.6,5.1-6.7,7-3.6-1.1-9.1-4.5-12.7-2.4-.6.4-2.8,3.2-3.4,2.6,1.7-6.4,4.6-12.6,9.1-17.5.6-.5.8,0,1.2.2,2.2,1.5,4.8,5.2,7,7,1.3.9,3.5.7,4.9.1.3-.1,5.4-3.4,5.9-3.7,5-3.9-.6-7.9-.2-8.1,4.5-.3,9.2.6,13.3,2.3,2.9,1.2,7.4,4.5,9.5,6.8.4.5.9.7.7,1.5h0l-.1-.1Z"/>
          <path class="cls-4" d="M46.3,164.99c-1,10.5-.9,21.3,1.8,31.6.8,3.3,2.6,6,3,9.2-1.2,1.2-5-4.3-5.5-5.3-3.5-6.8-5.7-13-6-20.9-.2-5.7,1.1-9.5,3.5-14.6h3.3-.1Z"/>
          <path class="cls-8" d="M76.9,231.29c4.8-1,7.4,7.6,7.8,11.2.8,7.6-3.5,17.2-11.2,19.4-7.3,2.1-9.4-4.8-5.5-6.5,1.1-.5,2.3,0,3.5-.4,3.4-.9,5.8-7.4,5.6-10.6s-3.3-7.9-3.2-9.6c0-1.5,1.6-3.3,3.1-3.6h0l-.1.1Z"/>
          <path class="cls-1" d="M60.1,241.49c3.6,3.9-2.9,9-6.4,5.5-3.8-3.9,3.2-9,6.4-5.5Z"/>
          <circle class="cls-7" cx="67.1" cy="239.19" r="3.7"/>
        </g>
      </g>
    </g>
  </g>
</svg>