<?xml version="1.0" encoding="UTF-8"?>
<svg id="Ebene_2" data-name="Ebene 2" xmlns="http://www.w3.org/2000/svg" viewBox="0 0 301.36 556.98">
  <defs>
    <style>
      .cls-1 {
        fill: #f8f8f9;
      }

      .cls-2 {
        fill: #fafafb;
      }

      .cls-3 {
        fill: #fdfdfe;
      }

      .cls-4 {
        fill: #150300;
      }

      .cls-5 {
        fill: #7d85a4;
      }

      .cls-6 {
        fill: #e42d14;
      }

      .cls-7 {
        fill: #f6f5f6;
      }

      .cls-8 {
        fill: #088537;
      }

      .cls-9 {
        fill: #b8cfbf;
      }

      .cls-10 {
        fill: #fefeff;
      }

      .cls-11 {
        fill: #1d0600;
      }

      .cls-12 {
        fill: #0a8337;
      }

      .cls-13 {
        fill: #fff;
      }

      .cls-14 {
        fill: #ebb039;
      }

      .cls-15 {
        fill: #060709;
      }

      .cls-16 {
        fill: #bdd3c2;
      }

      .cls-17 {
        fill: #7d85a5;
      }

      .cls-18 {
        fill: #fbfbfb;
      }

      .cls-19 {
        fill: #fcfcfc;
      }

      .cls-20 {
        fill: #feffff;
      }
    </style>
  </defs>
  <g id="Ebene_1-2" data-name="Ebene 1">
    <g>
      <g>
        <path class="cls-13" d="M223.99,502.85c7.48-1.38,6.71,9.09,1.27,9.46-.71.05-3.51-.39-4.02-.7-.7-.43-.79-1.85-1.24-2.6-.39-.64-1.46-1.23-1.57-1.78-.32-1.6,4.15-4.12,5.55-4.38h.01Z"/>
        <g>
          <path class="cls-15" d="M84.07,109.36c.18-2.79,1.29-4.01,1.44-5.56.13-1.41-.56-3.77-.49-5.73.08-2.21.93-4.68.97-6.93-1.99,1.11-3.67,4.53-6.07,4.66s-4.36-2.12-4.45-4.45c-.3-7.74,3.36-20.94,7.26-27.69,5.57-9.66,13.01-13.7,22.12-19.13.96-.57,1.6-1.75,2.7-2.1,1.86-.59,4.31-.02,6.26-.22-1.23-4.79-4.3-11.39-7.89-14.89-2.77-2.69-7-4.78-9.84-7.91-7.02-7.75-2.2-9.58,4.34-13.86,1.54-1.01,7.41-4.87,8.61-5.29,3.19-1.11,6.09,1.58,8.39,3.56,10.04,8.69,17.26,24.56,16.05,37.91,6.66.06,12.77,1.32,18.56,4.7,9.69,5.66,18.79,17.87,23.25,28.07,1.94,4.43,6.5,15.74-.99,16.69l.38,4.07c6.17,3.67,13.41,6.18,19.55,9.71,14.33,8.21,29.12,16.81,42.32,26.75,2.23,1.68,3.34,4.1,6.28,5,3.95,5.19,1.43,8.53-1.53,13.1-6.06,9.38-14.41,18.28-21.48,26.96-3.28,4.02-5.3,9.65-11.52,9.83,1.43,2.82,3.27,5.35,4.33,8.38,6.77,19.31,10.52,36.93,12.46,57.34,2.75,28.99,3.06,60.15,3.84,89.46,1.1,41.39-2.26,86.68-6.24,128.09-.84,8.73-2.6,17.4-3.35,26.15,23.42-8.89,24.07,30.8-.39,23.17-2.81-.88-4.19-2.01-5.31-4.76-.66-1.62-.64-3.48-1.13-4.65s-2.33-1.27-2.34-4.4c-.03-12.7,4.41-27.4,4.84-40.31,2.75-41.72,7.01-83.42,5.77-125.21-.91-30.54-1-63.03-4.32-93.3-.41-3.71-.53-7.41-1.11-11.13-.78-4.99-1.94-9.91-3.22-14.78-1.92,1.92-2.45,3.93-5.15,5.15-6.93,3.12-18.25,5.02-24.91.7-2.17-1.41-3.2-3.55-4.94-4.89-4.74-8.36,5.68-15.18,12.95-16.31-1.61-6.54-.86-13.22-.45-19.87-1.37-.42-2.7-.71-4.03-1.31-10.03-4.51-15.87-11.12-20.06-21.19-2.35-5.64-3.85-12.2.57-17.11-1.59.18-4.4-1.13-5.78-.76-.93.25-4,2.96-5.41,3.72-2.7,1.45-5.58,1.85-7.99,3.52,6.72,6.16,11.72,13.67,15.42,21.98,6.53,14.67,10.88,31.18,13.83,46.86s3.92,30.41,5.28,45.57c.56,6.2,1.15,11.69,1.44,17.98,3.79,81.96-1.52,164.5-13.93,245.62l.26.73c13.53-7.63,21.79,13.57,11.98,21.1-1.64,1.26-11.06,4.91-12.94,4.83-4.82-.21-8.62-8.25-9.87-12.27,1.36-8.82,3.07-17.6,4.28-26.45,6.6-48.4,11.44-95.9,12.52-144.83.77-34.69,1.4-69.79-1.42-104.32-2.48-30.39-6.26-64.67-18.96-92.57-2.5-5.48-12.4-21.28-18.32-22.45-1.53-.31-3.11.09-4.63-.17-12.19-2.08-25.37-5.28-33.59-15.33-2.72-3.32-4.91-8.64-7-12.43-.81,0-.91,1.6-.96,2.15-.76,9.57-.65,19.44-1.43,29.27-.44,5.48.61,12.1-2.68,16.5-11.99,16.02-35.97,30.99-50.81,45.15-.3.29-.77.42-1.18.48l.29.98c3.44.99,7.72,5.05,8.34,8.6s-1.11,7.73-4.15,9.53c-2,1.18-8.22,2.41-10.56,2.43-9.46.08-12.4-11.59-8.32-18.67,1.75-3.03,5.94-5.53,8.39-7.67,15.32-13.37,33-26.18,47.26-40.52.64-.64,4.74-5.28,4.89-5.66.96-2.36.13-7.33.37-10.19,1.34-16.35,2.29-32.79,3.35-49.18h0ZM123.39,58.98c4.99-15.75,3.1-34.07-8.37-46.54-.58-.63-3.18-3.42-3.62-3.61-1.58-.71-6.87,3.88-8.8,4.54l-.25,1.19c2.71,2.94,6.92,4.88,9.56,7.71,8.54,9.15,13.53,24.45,10.06,36.71h1.42,0ZM166.09,74.33c-4.59-9.86-13.62-20.76-24.43-23.77-1.07-.3-2.27-.19-3.41-.43-1.47-.3-4.51-2.16-5.15.08-.46,1.59-.38,4.2-.92,6.27-2.16,8.3-3.93,13.19-13.68,9.57-8.76-3.25-3.69-6.03-2.88-11.26.26-1.7.05-3.42.13-5.12-2.54-1.68-4,1.23-5.14,1.55-1.07.3-2.17-.06-3.48.36-1.12.36-6.21,3.71-7.38,4.62-8.18,6.35-13.59,15.57-15.18,25.82,3.2-2.14,5.91-4.8,9.14-6.93.98-.64,2.11-.74,3.02-1.3,1.97-1.19,2.86-3.91,6.05-2.56,2.46,1.04,2.06,4.44,2.78,6.33.72,1.89,3.43,4.1,3.95,6.37,5.51-2.16,11.99-12.98,18.24-11.79,4.41.84,10.87,11.79,11.73,11.78l12.68-13.21c3.91-1.25,8.14,2.65,10.88,5.02l3.05-1.4h0ZM161.77,130.47c-7.95,1.65-10.76-3.05-11.03-10.33-.07-1.75-.17-2.79,1.48-3.79,3.14-1.91,9.88-2.96,13.54-4.21.93-.49,1.22-4.07,1.31-5.41.15-2.16.11-5.06,0-7.24-.12-2.33-.88-9.92-1.7-11.74-.62-1.37-4.64-3.61-6.22-4.81-1.35-1.03-2.23-2.76-3.96-3.28-1.25-.18-5.47,4.46-6.61,5.69-2.18,2.36-5.61,8.19-9.11,8.19-4.77,0-9.4-10.25-13.02-12.93-.55-.09-2.05,1.19-2.57,1.62-3.61,2.96-7.59,7.61-11.27,10.32-2.19,1.61-4.32,2.23-6.47.24s-5.5-9.99-7.19-11.06c-.68-.43-3.44,1.33-3.87,1.92-1.26,1.76-2.08,15.12-1.91,17.8,1.27,19.5,9.38,37.34,29.36,42.59,12.19,3.2,21.02,3.17,31.72-4.08,3.9-2.64,6.35-4.73,7.52-9.5h0ZM190.07,111.76c-5.08-2.93-10.45-5.38-15.34-8.63l-.47,7.66,7.66,2.41c6.7,4.06,7.04,12.07,8.62,18.97,10.39-2.38,24-4.01,28.31,8.37.23,1.49.81,2.97.96,4.32,1,9.11-.41,12.13-2.3,20.49-.16.72-.39,1.28.62,1.1l18.4-23.37-.15-1.09c-1.74-1.04-3.02-2.58-4.58-3.83-3.51-2.82-11.19-8.73-14.9-10.77-.78-.43-1.4-.86-2.37-.75-2.23-2.77-11.61-6.91-15.19-9.03-3.15-1.87-6.09-4.01-9.27-5.84h0ZM184.31,142.46c-1.25-5.44-1.55-14.79-3.75-19.51-1.15-2.46-5.14-4.75-7.74-3.96l-.02,1.41c6.53-.86,6.04,7.83,7.44,12.47,1.01,3.35,2.76,6.81,3.6,10.08.69,2.72-.41,7.52,3.35,7.19.03-1.15-1.04-1.51-1.47-2.6-.5-1.3-1.08-3.65-1.41-5.07h0ZM165.13,119.91l-6.69,1.46-.02,1.89,5.92-.92.79-2.44h0ZM171.36,128.55c-1.25-.22-.74.18-1,.68-.54,1.07-3.69,9.5-3.32,9.87,1.51-.88,4.96,1.47,5.45,1.38s1.66-1.35,1.66-2.01c-.03-2.04-2.8-7.34-2.79-9.93h0ZM208.77,139.1c-5.42-1.19-10.96-.69-16.31.71-1.27.94,1.24,6.56.49,8.4,5.97-.86,10.78-3.49,15.1-7.69.47-.46.91-.63.73-1.43h-.01ZM177.12,151.09l-.49-4.8c-1.11,1.18-4.05,2.54-4.32,4.07s3.85.42,4.81.72h0ZM210.69,162.13c.87-4.98,3.08-10.33,1.92-15.35-4.85,4.81-9.49,6.84-15.92,8.77-5.67,1.7-6.98,1.54-12.54,1.81-3.56.17-8.15,2.47-12.3,1.42,2.39,4.13,4.58,9.58,8.15,12.71.92.81,13.48,8.87,13.44,6.22-1.52-3.23-1.12-5.68.29-8.81,3.32-7.42,9.54-8.68,16.97-6.77h-.01ZM202.87,169.41c-.82.25-2.36,2.94-2.53,3.74-.61,2.89,6.39,5.97,8.41,5.05.76-.34,3.14-3.38,3.49-4.23,1.62-3.94-6.57-5.4-9.37-4.56h0ZM200.81,188.81c-1.05-1.89-1.2-2.92-1.37-5.12-.38-.71-2.58-.07-2.69.32.23,7.1-.59,14.27,1.05,21.23,4.06.35,7.37,2.8,10.97,4.38-2.19-4.33-2.24-9.65-3.95-14.04-.96-2.46-2.86-4.67-4.02-6.77h.01ZM190.06,212.5c-2.09.65-7.38,2.77-5.79,5.53,3.08,5.35,14.11,2.83,18.74.94,1.57-.64,1.7-1.4,1.36-3.05l-6.63-2.95c.18,7.12-8.8,7.06-7.68-.48h0ZM26.52,226.89c-.71,1.52-.93,5.57.8,6.16,1.01.34,6.92-.35,7.3-.93,1.24-1.92-1.18-3.11-2.34-3.78-1.6-.92-3.36-1.43-4.56-2.87-.47.41-.93.86-1.2,1.43h0ZM223.99,502.85c-1.4.26-5.87,2.77-5.55,4.38.11.55,1.18,1.14,1.57,1.78.45.75.53,2.17,1.24,2.6.51.31,3.31.75,4.02.7,5.44-.37,6.21-10.84-1.27-9.46h-.01ZM175.06,537.38c-3.27-.02-9.22,3.82-8.42,7.7.12.59,1.85,3.27,2.29,3.48.39.19,6.14-1.84,6.86-2.29,3.32-2.06,1.58-8.88-.74-8.89h.01Z"/>
          <path class="cls-8" d="M166.09,74.33l-3.05,1.4c-2.75-2.37-6.98-6.27-10.88-5.02l-12.68,13.21c-.86,0-7.32-10.94-11.73-11.78-6.24-1.19-12.73,9.63-18.24,11.79-.52-2.26-3.2-4.41-3.95-6.37s-.32-5.29-2.78-6.33c-3.19-1.35-4.08,1.37-6.05,2.56-.91.55-2.05.65-3.02,1.3-3.22,2.13-5.94,4.79-9.14,6.93,1.6-10.25,7-19.47,15.18-25.82,1.16-.9,6.26-4.26,7.38-4.62,1.31-.42,2.41-.05,3.48-.36,1.14-.32,2.6-3.23,5.14-1.55-.07,1.71.14,3.43-.13,5.12-.82,5.24-5.88,8.02,2.88,11.26,9.75,3.62,11.52-1.27,13.68-9.57.54-2.07.46-4.68.92-6.27.64-2.24,3.69-.37,5.15-.08,1.14.23,2.34.13,3.41.43,10.82,3.01,19.84,13.91,24.43,23.77h0Z"/>
          <path class="cls-14" d="M210.69,162.13c-7.43-1.92-13.64-.65-16.97,6.77-1.41,3.14-1.81,5.59-.29,8.81.04,2.65-12.52-5.41-13.44-6.22-3.57-3.13-5.76-8.59-8.15-12.71,4.15,1.05,8.73-1.25,12.3-1.42,5.56-.27,6.87-.11,12.54-1.81,6.44-1.93,11.07-3.96,15.92-8.77,1.16,5.02-1.05,10.37-1.92,15.35h.01Z"/>
          <path class="cls-19" d="M190.07,111.76c3.18,1.83,6.12,3.97,9.27,5.84,3.58,2.12,12.96,6.27,15.19,9.03,1.33,1.65,3.72,6.56,4.1,8.61.35,1.9-.03,3.65.22,5.3-4.31-12.38-17.92-10.75-28.31-8.37-1.58-6.91-1.92-14.91-8.62-18.97,2.83-.4,5.16-1.96,8.15-1.44h0Z"/>
          <path class="cls-12" d="M123.39,58.98h-1.42c3.47-12.25-1.52-27.55-10.06-36.71-2.64-2.83-6.86-4.77-9.56-7.71l.25-1.19c1.93-.66,7.22-5.25,8.8-4.54.43.2,3.03,2.98,3.62,3.61,11.47,12.47,13.37,30.79,8.37,46.54h0Z"/>
          <path class="cls-18" d="M231.79,138.14c1.56,1.26,2.84,2.79,4.58,3.83l.15,1.09-18.4,23.37c-1.01.19-.78-.38-.62-1.1,1.9-8.35,3.3-11.37,2.3-20.49,3.49-3.07,7.55-5.33,11.99-6.72v.02Z"/>
          <path class="cls-2" d="M200.81,188.81c1.16,2.1,3.06,4.3,4.02,6.77,1.71,4.39,1.76,9.71,3.95,14.04-3.6-1.58-6.91-4.02-10.97-4.38-1.64-6.96-.82-14.13-1.05-21.23.11-.39,2.31-1.03,2.69-.32.16,2.2.32,3.23,1.37,5.12h-.01Z"/>
          <path class="cls-16" d="M208.77,139.1c.18.8-.26.97-.73,1.43-4.32,4.19-9.13,6.82-15.1,7.69.76-1.84-1.76-7.47-.49-8.4,5.36-1.4,10.89-1.9,16.31-.71h.01Z"/>
          <path class="cls-1" d="M190.06,212.5c-1.12,7.54,7.86,7.6,7.68.48l6.63,2.95c.34,1.65.2,2.41-1.36,3.05-4.63,1.89-15.66,4.4-18.74-.94-1.59-2.76,3.7-4.88,5.79-5.53h0Z"/>
          <path class="cls-18" d="M202.87,169.41c2.8-.84,10.99.62,9.37,4.56-.35.85-2.73,3.89-3.49,4.23-2.02.92-9.02-2.16-8.41-5.05.17-.8,1.71-3.5,2.53-3.74h0Z"/>
          <path class="cls-17" d="M184.31,142.46l-.48.48c-.83-3.27-2.58-6.72-3.6-10.08-1.4-4.64-.91-13.33-7.44-12.47l.02-1.41c2.6-.78,6.59,1.51,7.74,3.96,2.2,4.72,2.5,14.07,3.75,19.51h.01Z"/>
          <path class="cls-7" d="M171.36,128.55c0,2.59,2.76,7.89,2.79,9.93,0,.65-1.14,1.92-1.66,2.01s-3.94-2.27-5.45-1.38c-.38-.37,2.77-8.8,3.32-9.87.26-.5-.25-.91,1-.68h0Z"/>
          <path class="cls-9" d="M177.12,151.09c-.96-.3-5.07.75-4.81-.72s3.21-2.89,4.32-4.07l.49,4.8h0Z"/>
          <path class="cls-5" d="M184.31,142.46c.33,1.42.91,3.77,1.41,5.07.42,1.1,1.5,1.46,1.47,2.6-3.77.33-2.66-4.47-3.35-7.19l.48-.48h-.01Z"/>
          <g>
            <path class="cls-6" d="M161.77,130.47c-1.17,4.77-3.63,6.86-7.52,9.5-10.7,7.25-19.53,7.28-31.72,4.08-19.98-5.25-28.09-23.09-29.36-42.59-.18-2.68.65-16.05,1.91-17.8.43-.59,3.19-2.35,3.87-1.92,1.69,1.07,5.08,9.11,7.19,11.06s4.28,1.37,6.47-.24c3.68-2.7,7.65-7.35,11.27-10.32.53-.43,2.03-1.71,2.57-1.62,3.62,2.68,8.25,12.93,13.02,12.93,3.49,0,6.92-5.83,9.11-8.19,1.14-1.23,5.36-5.87,6.61-5.69,1.73.53,2.61,2.26,3.96,3.28,1.58,1.2,5.61,3.44,6.22,4.81.82,1.82,1.58,9.4,1.7,11.74.11,2.18.15,5.08,0,7.24-.09,1.34-.38,4.91-1.31,5.41-3.66,1.25-10.4,2.3-13.54,4.21-1.65,1-1.54,2.04-1.48,3.79.27,7.28,3.08,11.98,11.03,10.33h0ZM149.18,98.89c-4.94.94-4.35,8.65,1.3,7.58,4.47-.84,4.07-8.61-1.3-7.58ZM127.87,104.23c-3.57,3.84,3.08,9.65,6.31,4.63,2.99-4.64-2.94-8.26-6.31-4.63ZM147.69,119.12c-3.64-3.07-8.96.7-9.39,4.92-1.18,11.42,14.33,9.35,12.33-.42-.21-1-2.18-3.86-2.93-4.5h0Z"/>
            <polygon class="cls-17" points="165.13 119.91 164.34 122.35 158.42 123.27 158.44 121.38 165.13 119.91"/>
            <path class="cls-4" d="M147.69,119.12c.76.64,2.73,3.49,2.93,4.5,2,9.78-13.51,11.85-12.33.42.44-4.22,5.75-8,9.39-4.92h0Z"/>
            <path class="cls-11" d="M127.87,104.23c3.37-3.62,9.29,0,6.31,4.63-3.23,5.02-9.87-.79-6.31-4.63Z"/>
            <path class="cls-11" d="M149.18,98.89c5.37-1.02,5.76,6.74,1.3,7.58-5.65,1.07-6.24-6.64-1.3-7.58Z"/>
          </g>
        </g>
      </g>
      <g>
        <path class="cls-10" d="M173.76,269.11c-15.1,4.81-31.33-3.42-40.76-15.12-2.21-2.75-3.46-6.19-5.76-8.86-2.93,5.58-4.66,10.53-8.87,15.36-8.69,9.95-17.13,12.45-30.24,11.53-10.58-.74-22.27-5.98-28.24-14.93-6.01-9.01-9.69-18.14-7.47-29.22-3.03,1.13-6.33,1.53-9.59,1.44-.62-3.56-4.9-7.61-8.34-8.6l-.29-.98c.41-.06.88-.19,1.18-.48,14.84-14.16,38.82-29.13,50.81-45.15,3.3-4.41,2.25-11.02,2.68-16.5.79-9.83.67-19.7,1.43-29.27.04-.56.15-2.15.96-2.15,2.09,3.79,4.28,9.11,7,12.43,8.22,10.05,21.4,13.25,33.59,15.33,1.52.26,3.1-.14,4.63.17,5.92,1.18,15.82,16.97,18.32,22.45,12.7,27.9,16.48,62.18,18.96,92.57v-.02Z"/>
        <path class="cls-20" d="M242.82,136.7c7.31,2.24,13.5,4.01,18.43,10.59,6.29,8.4,10.38,19.6,8.44,30.17,8.85,1.27,18.08,4.15,23.5,11.76,7.92,11.12,11.31,33.77,4.55,45.84-11.14,19.91-39.03,27.08-60.21,21.82-4.29-1.06-8.27-3.23-12.47-4.56-1.94-20.41-5.69-38.03-12.46-57.34-1.06-3.03-2.9-5.56-4.33-8.38,6.22-.18,8.24-5.81,11.52-9.83,7.07-8.68,15.43-17.59,21.48-26.96,2.96-4.58,5.48-7.91,1.53-13.1h.02Z"/>
        <path class="cls-10" d="M84.07,109.36c-1.06,16.38-2.01,32.83-3.35,49.18-.23,2.85.59,7.82-.37,10.19-.15.38-4.26,5.02-4.89,5.66-14.26,14.34-31.94,27.15-47.26,40.52-2.45,2.14-6.65,4.65-8.39,7.67-5.89-1.86-11.65-9.38-14.15-14.87-10.43-22.9-6.97-47.26,14.85-61.42,9.33-6.05,16.16-5.9,26.63-2.14,2.98,1.07,4.81,3.65,7.19,5.52v-14.63c0-4.58,10.15-16.7,13.9-19.67,4.27-3.38,10.23-6.78,15.83-5.99v-.02Z"/>
        <path class="cls-3" d="M216.45,246.56c-2.4-1-5.39-4.28-7.71-5.04-.64-.21-.98-.14-1.54.22-1.62,1.03-4.15,6.98-5.62,8.9-3.18,4.12-9.39,9.79-13.75,12.63-2.02,1.32-4.24,2.36-6.39,3.44-1.36-15.16-2.47-30.61-5.28-45.57.29.19.7.28.96.48,1.74,1.34,2.77,3.48,4.94,4.89,6.66,4.32,17.98,2.42,24.91-.7,2.7-1.22,3.23-3.23,5.15-5.15,1.28,4.87,2.44,9.79,3.22,14.78.58,3.72.7,7.41,1.11,11.13h0Z"/>
        <path class="cls-19" d="M176.16,221.13c-2.94-15.68-7.3-32.19-13.83-46.86-3.7-8.31-8.7-15.82-15.42-21.98,2.41-1.67,5.29-2.07,7.99-3.52,1.41-.76,4.48-3.46,5.41-3.72,1.37-.37,4.19.94,5.78.76-4.42,4.91-2.91,11.48-.57,17.11,4.19,10.07,10.03,16.68,20.06,21.19,1.34.6,2.66.89,4.03,1.31-.4,6.65-1.15,13.33.45,19.87-7.27,1.13-17.69,7.96-12.95,16.31-.26-.2-.67-.29-.96-.48h.01Z"/>
      </g>
    </g>
  </g>
</svg>