<?xml version="1.0" encoding="UTF-8"?>
<svg id="Ebene_2" data-name="Ebene 2" xmlns="http://www.w3.org/2000/svg" viewBox="0 0 342.36 680.34">
  <defs>
    <style>
      .cls-1 {
        fill: #f4f5f6;
      }

      .cls-2 {
        fill: #e5e4e5;
      }

      .cls-3 {
        fill: #0b0301;
      }

      .cls-4 {
        fill: #088537;
      }

      .cls-5 {
        fill: #06070c;
      }

      .cls-6 {
        fill: #f8f9f9;
      }

      .cls-7 {
        fill: #0f0807;
      }

      .cls-8 {
        fill: #e02c15;
      }

      .cls-9 {
        fill: #fbfbfc;
      }

      .cls-10 {
        fill: #0a8337;
      }

      .cls-11 {
        fill: #1e0600;
      }

      .cls-12 {
        fill: #fff;
      }

      .cls-13 {
        fill: #040508;
      }

      .cls-14 {
        fill: #fefefe;
      }

      .cls-15 {
        fill: #f3f5f9;
      }

      .cls-16 {
        fill: #e32d14;
      }
    </style>
  </defs>
  <g id="Ebene_1-2" data-name="Ebene 1">
    <path class="cls-12" d="M181.06,464.5c-.16,25.87-.7,51.63-.94,77.5-.06,6.41-1.66,13.97.32,20.27,3.35,10.69,20.38,5.01,21.26-2.05.93-7.42-6.49-14.59-13.92-12.25-.25-13.71.23-27.37.46-41.04.18-10.88.38-21.9.5-32.84,1.05-1.06,1.35.54,1.81,1.3,3.34,5.45,6.14,10.35,7.25,16.74.37,2.13.48,4.73.53,6.91.56.64,4.85-4.22,5.52-4.78.93-.77,2.03-1.4,3.11-1.93-.06.64.41,1.43.33,2.08-.33,2.76-2.95,6.64-3.2,10.64-.44,6.83,6.26,16.37,13.58,11.67,5.46-3.51,4.18-15.98,1.55-21.05-2.03-3.91-3.9-2.86-4.1-8.13,3.06-.71,5.68-2.47,8.92-2.83,19.53-2.16,31.04,10.22,35.85,27.85,2.2,8.07,2.15,16.11,1.28,24.39,17.27-9.96,40.29,3.2,38.84,23.51,1.66.08,3.37-.13,5.03,0,7.08.56,12.64,1.13,18.97,4.53,18.38,9.9,22.99,36.34,13.66,54-3.68,6.96-11.37,17.88-18.62,21.19-19.25,8.78-34.6,5.84-49.76-8.46-.49-.46-.92-.99-.94-1.7-4.45,3.82-7.78,8.66-13.64,10.58-7.96,2.62-18.19-.29-23.27-6.99l-5.76-12.22c-.05,5.37,1.19,10.75,1.43,16.07.8,17.76-10.63,33.06-26.86,39.33-9.22,3.56-24.53,5.39-33.51.91-5.07-2.53-9.45-5.85-13.99-9.03-1.31-.92-3.25-.61-3.08-2.66-.89.11-5.41,4.79-6.8,5.67-1.87,1.18-14.92,7.18-16.81,7.65-10.2,2.5-21.88-3.05-28.92-10.2-6.97-7.08-10.79-20.18-9.11-29.99-.24-.27-4.91,2.74-5.76,3.11-8.94,3.97-16.82,3.92-25.74-.14-4.15-1.89-8.36-10.66-9.5-14.96-.88-3.28-.68-6.77-1.73-10.02-7.79.12-14.89,4.06-22.48,1.14-31.9-12.28-28.89-67.08-.11-81.65,11.63-5.89,21.07-7.38,33.14-1.76,3.13,1.46,6.01,3.59,9.17,4.98-.2-3.03.28-6.36,0-9.35-.6-6.31-2.73-6.6.4-13.52,7.11-15.72,32.6-26.55,47.57-15.51,2.56,1.88,2.84,4.67,7,5.23,5.03.68,9.96.66,12.42-4.29,3.46-6.96,1.79-16.82-1.67-23.5l8.52-9.6,6.35-2.87c.48,9.16.75,18.43,1.44,27.58,1.21,15.99,3.6,31.94,4.82,47.93-8.38,2.31-20.35,10.69-18.71,20.65.53,3.21,5.5,6.21,8.48,6.38,2.41.14,11.24-2.34,13.41-3.62,3.87-2.28,6.49-8.98,6.85-13.3.54-6.5-2.03-9.84-2.87-15.83-3.36-23.88-4.48-49.97-5.76-74.12,9.4-2.96,19.09-2.18,27.82,2.4h-.03Z"/>
    <g>
      <g>
        <path class="cls-13" d="M112.95,501.43c-3.61-6.63-1.42-14.95,2.15-21.12,2.57-4.45,4.55-4.67,4.6-10.78,0-1.6-.53-2.91-.53-4.3-.17-40.57-1.36-81.28-1.92-121.85-.8-58.58-2.61-117.26,2.42-175.6.4-4.58,1.96-9.17,1.68-13.67-2.48,5.37-9.12,4.59-8.89-1.66.61-16.38,14.15-30.05,27.1-38.18,2.66-1.67,5.27-3.21,8.41-3.83-6.01-19.24-6.19-42.86,8.87-58.05,2.55-2.58,9.42-8.19,13.19-6.46,1.7.78,7.16,7.5,7.78,9.48,1.79,5.66-2.08,6.55-5.15,9.45-11.08,10.48-9.72,32.3-3.56,45.1,4.44-.85,10.75.89,15.09,2.4,13.99,4.86,28.3,19.73,33.69,33.46,2.11,5.39,2.49,11.43-5.37,10.17-1.21-.19-3.67-2.38-3.64-.68.05,3.07,1.2,7.26,1.45,10.55.33,4.28-.26,7.81.71,12.24,1.15,5.23,1.61,11.35,2.17,17.02,1.68,17.17,2.42,33.59,1.46,50.87-.5,9.09-2.05,18.22-2.44,27.3-1.09,25.54,1.52,52.68,2.42,78.22.41,11.68.67,23.34.94,35.03.63,26.94,2.14,56.16,1,82.99-.25,5.93-1.69,12.04-1.46,17.97.2,5.27,2.07,4.22,4.1,8.13,2.64,5.07,3.92,17.54-1.55,21.05-7.32,4.71-14.02-4.83-13.58-11.67.25-4,2.88-7.87,3.2-10.64.08-.66-.39-1.44-.33-2.08,6.08-70.76-2.67-143.64-2.87-214.67,1.5-16.28,2.61-32.62,3.37-48.92l-.98-22.8c-.69-.11-.63.81-.83,1.32-3.15,7.96-4.44,15.65-11.68,21.43-2.07,1.65-7.82,4.3-9.07,5.8s.76,11.27.95,13.91c1.57,21.44.36,42.88.5,64.26s1.39,44.47,1.88,66.72c.7,31.57.85,63.16.5,94.73-.12,10.95-.32,21.96-.5,32.84-.22,13.66-.71,27.33-.46,41.04,7.42-2.34,14.84,4.82,13.92,12.25s-17.91,12.74-21.26,2.05c-1.97-6.3-.37-13.86-.32-20.27.24-25.86.78-51.63.94-77.5.17-27.54.08-55.16-.5-82.73-.48-22.77-1.68-45.4-1.88-68.16-.2-22.54.6-45.02-.48-67.64-.12-2.49-.53-5.33-.95-7.69l-.71-.2c-3.51.89-9.34,1.87-12.94,1.39-3.96-.53-9.35-3.79-13.01-4.27-1.18-.15-.77,2.25-.72,3.13.69,13.53.87,25.31.48,38.82-1.75,61.28-.34,123.77,2.9,184.95,1.28,24.15,2.4,50.24,5.76,74.12.84,5.98,3.41,9.32,2.87,15.83-.36,4.32-2.98,11.02-6.85,13.3-2.17,1.28-11.01,3.76-13.41,3.62-2.98-.17-7.95-3.17-8.48-6.38-1.64-9.97,10.33-18.34,18.71-20.65-1.22-15.99-3.62-31.94-4.82-47.93-.69-9.15-.96-18.42-1.44-27.58-3.38-64.3-4.74-129.22-2.38-193.55-1.05-14.27.63-28.83-1.7-42.95-4.77-3.52-8.81-7.02-11.66-12.33l-4.88-9.26c-.2,8.22.24,16.5,0,24.72-1.92,69.35.79,139.22,1.92,208.64.41,9.7-.5,20.65.47,30.24.39,3.9,1.94,4.24,3.35,6.96,3.46,6.67,5.13,16.53,1.67,23.5-2.46,4.94-7.39,4.97-12.42,4.29-4.16-.56-4.44-3.35-7-5.23h-.01.01ZM166.99,54.4c-8.92,5.35-14.01,16.4-14.71,26.56-.79,11.45.66,24.69,6.63,34.62.52.87,1.22,2.48,2.24,2.58.86,0,2.67-.55,2.57-1.62-7.92-14.77-10.16-32.66-2.9-48.14,2.2-4.7,4.93-8.36,9.19-11.43l-3.03-2.57h0ZM171.95,117.65c1.78,3.78-7.31,8.6-9.83,8.68-3.3.1-6.32-3.22-8.39-5.57s-1.63-4.33-6.11-2.73c-1.65.59-13.82,9.78-15.48,11.38-1.44,1.39-10.41,12.85-9.11,14.15,5.52-1.17,15.41-10.59,20.4-5.77l5.67,7.64c3.38-1.86,10.32-9.26,13.96-9.09,2.18.1,7.96,4.2,9.55,5.84.84.86,3.16,4.88,3.86,4.73s7.47-7.77,9.23-9.01c7.57-5.34,15.94,3.83,22.46,7.1-.5-1.7-1.37-3.4-2.26-4.93-3.64-6.3-12.18-13.85-18.47-17.51-4.88-2.84-9.91-4.16-15.49-4.89v-.02h0ZM190.48,221.58c6.31-6.31,10.73-25.81,11.62-34.67,1.27-12.71.38-25.67-2.6-38.06-.6-1.01-8-5.01-8.99-4.75-5.32,3.88-11.83,15.93-19.28,9.53-2.06-1.77-5.07-9.11-8.53-8.56-.89.14-6.52,4.73-7.77,5.7-1.77,1.37-5.13,5.26-7.22,5.21-3.87-.09-5.71-8.99-9.2-10.92-.86-.21-6.81,2.98-7.59,3.75-1.01.99-1.35,3.66-1.6,5.12-3.69,21.85-2.89,55.71,16.77,69.94,7.04,5.09,17.79,8.87,26.46,7.37,3.94-.68,15.07-6.8,17.93-9.65h0ZM122.54,499.04c.63.09,2.57.21,2.93-.29,1.01-2.51,1.14-5.45.92-8.15-.05-.64-.48-1.03-.5-1.16-.45-3.08-.93-4.87-2.41-7.67-1.12-.24-.77.15-1.07.62-2.36,3.64-5.47,12.54-1.81,15.95.83.77.99.57,1.93.7h.01ZM213.67,509.11c-.06-1.81.13-3.65-.06-5.46-.05-.49-.19-2.26-.9-2.21-.48,2.33-2.24,6.75.95,7.67h0ZM154.19,549.41c-5.65,1.86-11.5,4.72-13.4,10.8.16,1.9,9.31-.86,10.31-1.67,1.26-1.02,3.89-8.06,3.09-9.13ZM187.84,560.37c1.28.6,6.42-.88,6.13-2.5-.04-.21-2.09-2.35-2.38-2.49-1.53-.76-5.94,2.8-3.75,4.99Z"/>
        <path class="cls-6" d="M154.19,549.41c.79,1.07-1.83,8.12-3.09,9.13-1,.8-10.15,3.57-10.31,1.67,1.9-6.08,7.75-8.94,13.4-10.8Z"/>
        <path class="cls-1" d="M187.84,560.37c-2.19-2.2,2.22-5.75,3.75-4.99.29.14,2.34,2.28,2.38,2.49.29,1.63-4.85,3.1-6.13,2.5Z"/>
        <path class="cls-15" d="M125.9,489.44c.02.14.45.53.5,1.16.22,2.7.09,5.63-.92,8.15-.36.49-2.3.37-2.93.29l3.36-9.59h-.01Z"/>
        <path class="cls-2" d="M213.67,509.11c-3.19-.92-1.43-5.34-.95-7.67.7-.04.85,1.73.9,2.21.18,1.81,0,3.65.06,5.46h0Z"/>
        <g>
          <path class="cls-16" d="M190.48,221.58c-2.85,2.85-13.99,8.97-17.93,9.65-8.68,1.5-19.43-2.27-26.46-7.37-19.66-14.23-20.46-48.09-16.77-69.94.25-1.45.59-4.13,1.6-5.12.78-.77,6.74-3.97,7.59-3.75,3.49,1.92,5.33,10.83,9.2,10.92,2.09.05,5.45-3.84,7.22-5.21,1.25-.97,6.88-5.55,7.77-5.7,3.46-.56,6.47,6.78,8.53,8.56,7.45,6.4,13.96-5.65,19.28-9.53.99-.26,8.39,3.74,8.99,4.75,2.97,12.4,3.87,25.35,2.6,38.06-.89,8.86-5.31,28.36-11.62,34.67h0ZM186.48,165.77c-3.75,4.05,2.62,9.69,6.1,5.86,4.46-4.9-1.99-10.31-6.1-5.86ZM178.99,166.74c-2.77-3.03-7.98-.33-6.94,4.3,1.33,5.93,11.33.5,6.94-4.3ZM139.67,168.6c-3.86.87-6.48,7.45-7.3,10.93-2.02,8.58,1.35,24.42,7.19,31.19,10.11,11.72,26.72,17.73,41.03,9.85,10.74-5.91,15.19-25.68,10.62-36.57-3.63-8.67-5.4-4.71-11.02-2.68-9.78,3.55-14.79-3.11-22.64-7.31-4.61-2.47-12.73-6.57-17.89-5.41h.01Z"/>
          <path class="cls-10" d="M166.99,54.4l3.03,2.57c-4.25,3.07-6.98,6.73-9.19,11.43-7.26,15.48-5.02,33.37,2.9,48.14.1,1.07-1.71,1.61-2.57,1.62-1.02-.1-1.72-1.71-2.24-2.58-5.97-9.93-7.42-23.16-6.63-34.62.7-10.16,5.78-21.21,14.71-26.56h0Z"/>
          <path class="cls-4" d="M171.95,117.65c5.58.74,10.61,2.05,15.49,4.89,6.29,3.66,14.83,11.21,18.47,17.51.88,1.53,1.75,3.24,2.26,4.93-6.53-3.27-14.89-12.44-22.46-7.1-1.76,1.24-8.54,8.86-9.23,9.01s-3.02-3.87-3.86-4.73c-1.59-1.64-7.37-5.74-9.55-5.84-3.65-.16-10.58,7.24-13.96,9.09l-5.67-7.64c-4.99-4.82-14.88,4.6-20.4,5.77-1.29-1.3,7.67-12.75,9.11-14.15,1.66-1.6,13.83-10.8,15.48-11.38,4.49-1.6,4.04.37,6.11,2.73s5.09,5.67,8.39,5.57c2.52-.08,11.61-4.89,9.83-8.68v.02h0Z"/>
          <path class="cls-3" d="M139.67,168.6c5.17-1.16,13.29,2.94,17.89,5.41,7.85,4.21,12.86,10.86,22.64,7.31,5.61-2.04,7.38-5.99,11.02,2.68,4.57,10.89.11,30.66-10.62,36.57-14.32,7.88-30.92,1.87-41.03-9.85-5.84-6.77-9.22-22.61-7.19-31.19.82-3.48,3.44-10.06,7.3-10.93h-.01ZM174.34,190.09c-7.57.29-13.45-5.46-19.65-8.89-1.94-1.07-11.36-5.91-12.89-4.95l-1.92,6.08c9.58,6.82,20.73,14.28,33.04,13.29l1.42-5.53h0Z"/>
          <path class="cls-11" d="M186.48,165.77c4.11-4.45,10.56.96,6.1,5.86-3.48,3.83-9.85-1.81-6.1-5.86Z"/>
          <path class="cls-11" d="M178.99,166.74c4.39,4.81-5.61,10.23-6.94,4.3-1.04-4.64,4.16-7.34,6.94-4.3Z"/>
          <path class="cls-9" d="M174.34,190.09l-1.42,5.53c-12.31.99-23.46-6.47-33.04-13.29l1.92-6.08c1.53-.95,10.94,3.88,12.89,4.95,6.2,3.42,12.08,9.18,19.65,8.89Z"/>
        </g>
      </g>
      <g>
        <path class="cls-5" d="M229.98,82.16l-15.35-4.56c-34.93-21.05-7.76-64.72,22.92-72.54,10.85-2.76,27.69-5.72,38.7-4.93,17.96,1.28,50.58,15.06,56.86,33.32,2.84,8.28,1.58,28.38-3.94,35.44-6.27,8.03-29.53,17.97-39.54,18.97-6.25.63-19.63.99-25.86.56-3.34-.23-6.63-1.65-9.96-1.37l-21.41,21.28c-2.02.53-4.2.54-5.24-1.53-2.89-5.76,2.36-18.26,2.82-24.64h0ZM235.74,94.15c3.29-3.13,6.8-6.21,9.84-9.58,1.51-1.67,1.97-4.15,4.62-4.97,3.37-1.05,9.38.95,13.09,1.14,5.56.29,11.72-.41,17.27-.48,12.2-.15,28.77-5.3,38.59-12.77,5.97-4.55,6.41-8.98,7.23-16.27,2.01-17.9-4.56-24.68-19.34-32.94-23.08-12.89-42.59-11.96-67.57-5.53-11.96,3.08-27.74,16.19-31.31,28.16-3.67,12.28-2.14,22.15,9.19,29.18.95.59,11.35,3.78,13.08,4.19,3.04.72,8.67-.81,9.52,2.95.9,3.96-1.76,3.54-2.65,5.78-1.11,2.78-1.05,8.05-1.56,11.15h0Z"/>
        <path class="cls-14" d="M235.74,94.15c.51-3.1.45-8.37,1.56-11.15.89-2.24,3.55-1.82,2.65-5.78s-6.48-2.23-9.52-2.95c-1.73-.41-12.13-3.6-13.08-4.19-11.33-7.03-12.86-16.91-9.19-29.18,3.58-11.97,19.35-25.09,31.31-28.16,24.97-6.43,44.49-7.36,67.57,5.53,14.78,8.26,21.35,15.04,19.34,32.94-.82,7.3-1.26,11.73-7.23,16.27-9.81,7.47-26.39,12.62-38.59,12.77-5.55.07-11.71.77-17.27.48-3.71-.19-9.72-2.19-13.09-1.14-2.65.83-3.11,3.3-4.62,4.97-3.04,3.37-6.55,6.45-9.84,9.58h0ZM277.82,29.51c-4.96.64-10.93,6.68-14.03,10.42-4.99-6.03-10.46-12.38-19.21-9.61-5.02,1.58-5.77,8.61-4.77,12.99,1.17,5.15,13.23,17.85,17.84,20.54,3.16,1.84,4.31,2.21,7.36-.14,5.02-3.87,16.08-15.01,18.78-20.55,1.2-2.45,2.85-6.69,1.94-9.32-1.21-3.51-4.42-4.77-7.9-4.32h-.01Z"/>
        <g>
          <path class="cls-7" d="M277.82,29.51c3.48-.45,6.69.81,7.9,4.32.91,2.63-.74,6.87-1.94,9.32-2.71,5.54-13.76,16.68-18.78,20.55-3.05,2.35-4.2,1.98-7.36.14-4.61-2.69-16.66-15.39-17.84-20.54-1-4.38-.24-11.4,4.77-12.99,8.75-2.76,14.22,3.59,19.21,9.61,3.1-3.74,9.08-9.78,14.03-10.42h.01,0ZM276.98,38.5c-4.72,1.95-7.96,6.37-11.24,10.1-5.18,2.15-6.13-2.96-8.41-5.55-.58-.66-5.73-4.89-6.37-5.14-1.25-.5-2.42-.4-3.72-.36-.39,2.84.73,5.67,2.4,7.92.99,1.34,10.49,10.81,11.27,10.81,3.92-3.17,8.22-6.75,11.52-10.56.77-.9,5.26-6.42,4.55-7.2v-.02h0Z"/>
          <path class="cls-8" d="M276.98,38.5c.72.78-3.77,6.3-4.55,7.2-3.3,3.81-7.6,7.39-11.52,10.56-.78,0-10.28-9.47-11.27-10.81-1.67-2.25-2.79-5.08-2.4-7.92,1.3-.04,2.47-.13,3.72.36.64.25,5.79,4.49,6.37,5.14,2.28,2.59,3.23,7.7,8.41,5.55,3.28-3.72,6.52-8.15,11.24-10.1v.02h0Z"/>
        </g>
      </g>
    </g>
  </g>
</svg>