<?xml version="1.0" encoding="UTF-8"?>
<svg id="Ebene_2" data-name="Ebene 2" xmlns="http://www.w3.org/2000/svg" viewBox="0 0 361.12 509.29">
  <defs>
    <style>
      .cls-1 {
        fill: #210700;
      }

      .cls-2 {
        fill: #1e0700;
      }

      .cls-3 {
        fill: #080a0e;
      }

      .cls-4 {
        fill: #0c8137;
      }

      .cls-5 {
        fill: #088537;
      }

      .cls-6 {
        fill: #01040a;
      }

      .cls-7 {
        fill: #030605;
      }

      .cls-8 {
        fill: #fff;
      }

      .cls-9 {
        fill: #050a11;
      }

      .cls-10 {
        fill: #e42e15;
      }

      .cls-11 {
        fill: #f6f7f8;
      }

      .cls-12 {
        fill: #f0f3f6;
      }

      .cls-13 {
        fill: #0b0c0e;
      }
    </style>
  </defs>
  <g id="Ebene_1-2" data-name="Ebene 1">
    <g>
      <path class="cls-8" d="M154.76,89.04c9.58.42,29.05,7.97,34.44,16.17,1.54,2.35,3.61,6.04,3.93,8.78.37.42,6.07-3.99,6.85-4.41,5.96-3.2,16.22-2.61,22.39-.13,5.16,2.07,9.62,8.32,12,13.19.33.67,0,2.53,1.43,2.88,1.43-3.39,6.45-7.5,9.6-9.59,10.12-6.73,18.05-7.56,29.63-3.97,6.95,2.15,10.89,5.96,14.49,12.13.71,1.22,2.57,5.09,3.36,6.72,2.73,5.65,3.59,12.1,1.92,18.22,2.94-1.22,5.89-3.51,9.09-4.1,6.73-1.24,13.11,1.27,17.77,6.02-1.34,16.01-6.63,31.06-17.52,42.68-7.17,7.66-13.76,14.83-23.07,20.11l-.64.04c-3.27-6.63-11.92-7.35-17.45-2.8-1.51,1.24-3.84,4.61-4.06,6.53-.35,3.04,2.43,7.53,5.54,8.16,11.73,2.37,24.56-6.81,33.23-14.04,15.94-13.28,25.92-27.62,30.21-48.22.85,2.58.75,6.34.01,8.88,2.37-.35,4.74.79,6.87,1.74,19.94,8.87,28.97,24.88,25.68,46.65-1.72,11.39-6.95,18.89-17.37,23.88-7.3,3.49-23.34,6.37-30.8,3.78-4.45-1.55-10.35-3.96-14.61-6.01-1.13-.54-7.58-4.64-8.14-4.08,1.54,5.32,1.18,11.11-.72,16.31-4.11,11.23-21.63,17.23-32.51,13.33-1.34-.48-8.45-5.25-8.97-4.7.09,1.76-.24,3.53-.82,5.18-3.63,10.36-9.44,16.79-18.85,22.17-1.51.86-5.92,3.32-7.19,3.84-15.14,6.12-38.44-.9-45.17-16.47-2.04-4.73-3.57-10.52-3.28-15.67-.83-.22-.96.35-1.44.71-4.29,3.29-6.06,6.92-12.47,7.44-2.5.2-4.76-.2-7.19-.48-6.97-.81-10.33-2.43-15.35-7.43l-2.87-5.52c-.16,1.67-.78,3.38-1.71,4.76-4.01,5.9-14.23,15.54-21.19,17.18-19.15,4.5-40.22,1.06-51.04-16.83-3.39-5.6-5.74-11.46-6.16-18.07-.8.15-.57.98-1.55,1.56-11.67,6.79-32.07,2.03-40.89-7.79-13.96-15.54-12.07-41.64-3.2-59.34,7.63-15.22,25.26-21.04,41.43-17.28,1.16.27,2.23.72,3.26,1.3-11.23,19.41-11.28,50.63,10.71,62.45,9.13,4.9,22.08,4.87,29.34-3.44,4.5-5.14,5.36-13.69-1.67-17.05-7.37-3.53-13.54,1.99-18.01,7.45-1.58,1.93-2.38,4.16-3.65,5.94-.98,1.37-3.59-.51-4.7-1.41-7.46-6.02-11.88-15.74-11.56-25.41.29-8.76,2.94-17.38,6.74-25.17l3.35,1.91c-2.23-4.66-2.1-10.37-1.44-15.35,1.97-14.77,14.19-26.13,29.26-26.38,3.54-.06,9.18.68,12.47,1.92s6.07,3.88,8.88,5.75c-.15-3.55.39-7.1,1.19-10.54.65-2.76,1.92-6.9,2.88-9.59,2.02-5.7,4.61-10.04,9.15-14.12s16.29-9.42,22.51-9.87c1.86-.13,6.29-.54,7.67-.48l-.02-.02Z"/>
      <path class="cls-9" d="M115.43,113.5c-.96,2.69-2.23,6.83-2.88,9.59-3.72.76-6.71,3.23-10.07,4.8-3.29-1.24-8.93-1.98-12.47-1.92l13.42-7.45,12-5.02h0Z"/>
      <g>
        <path class="cls-3" d="M298.91,128.88c-1.95.31-3.44,2.72-6.02,1.89-.78-1.62-2.65-5.5-3.36-6.72,2.26-.47,4.88-2.45,7.09-2.79,7.31-1.14,20.34.06,25.54,5.9,9.36,10.51,8.42,23.39,5.75,36.23-4.29,20.6-14.27,34.94-30.21,48.22-8.68,7.23-21.51,16.41-33.23,14.04-3.1-.63-5.88-5.12-5.54-8.16.22-1.92,2.55-5.29,4.06-6.53,5.53-4.55,14.17-3.84,17.45,2.8l.64-.04c9.31-5.28,15.9-12.45,23.07-20.11,10.89-11.63,16.18-26.67,17.52-42.68.43-5.1,0-9.07-2.31-13.76-.63-1.27-2.9-4.84-3.95-5.64M267.47,218.08c9.03,1.65,5.35-4.56.6-1.1-.44.32-.85.02-.6,1.1Z"/>
        <path class="cls-12" d="M267.47,218.08c-.25-1.08.15-.78.6-1.1,4.75-3.46,8.43,2.75-.6,1.1Z"/>
      </g>
      <g>
        <path class="cls-13" d="M60.75,152.36c-.67,4.98-.79,10.69,1.44,15.35l-3.35-1.91c-3.8,7.79-6.45,16.4-6.74,25.17-.32,9.67,4.1,19.39,11.56,25.41,1.11.9,3.72,2.78,4.7,1.41,1.27-1.79,2.07-4.02,3.65-5.94,4.47-5.46,10.63-10.98,18.01-7.45,7.02,3.37,6.16,11.91,1.67,17.05-7.26,8.31-20.21,8.34-29.34,3.44-21.99-11.81-21.94-43.04-10.71-62.45,1.96-3.39,5.72-8.12,9.11-10.07h0ZM76.1,220c3.85.86,10.43-2.53,10.95-6.6.18-1.38-.41-2.69-1.97-2.45-2.05.32-9.74,8.49-8.98,9.05h0Z"/>
        <path class="cls-11" d="M76.1,220c-.76-.56,6.93-8.72,8.98-9.05,1.56-.25,2.14,1.07,1.97,2.45-.52,4.07-7.1,7.46-10.95,6.6h0Z"/>
      </g>
      <g>
        <g>
          <path class="cls-6" d="M227.66,290.52l1.46,15.09c1.79,44.78-2.7,89.46-8.23,133.8-2.06,16.51-4.66,32.97-7.17,49.41,5.8,1.9,16.36,6.82,15.28,14.32-.57,3.92-5.02,6.35-8.75,6.14-6.37-.35-12-5.07-15.04-10.42-3.19-5.6-.28-6.26.75-11.08,2.41-11.25,3.81-25.27,5.33-36.88,6.5-49.44,11.89-100.21,9.68-150.11-.09-2.07-.88-4.24-.5-6.46,1.28-.52,5.68-2.97,7.19-3.84v.03ZM220.46,501.12l-6.23-3.83c.42,3,3.75,3.51,6.23,3.83Z"/>
          <path class="cls-6" d="M158.11,270.37c.13,4.07-.17,8.18-.02,12.25,1.98,55.37,8.09,112.96,14.82,167.95.38,3.15,1.5,9.24,1.51,11.92,0,4.74-6.09,14.57-10.56,16.31-5.54,2.15-9.89-.14-10.09-6.22-.29-8.76,5.54-13.37,11.34-18.7-5.39-39.76-8.89-79.9-11.79-119.96-1.43-19.79-3.64-41.15-2.9-60.94.04-1.07.14-2.09.5-3.1,2.44.28,4.69.68,7.19.48h0ZM161.95,470.42c1.69-1.65,3.51-3.77,3.6-6.23-1.93,1.67-3.56,3.5-3.6,6.23Z"/>
        </g>
        <g>
          <path class="cls-7" d="M147.08,89.52l1-6.9c-.1-.7-5.21-.72-3.14-7s11.45-16.56,16.85-20.56c8.11-6.01,17.13-10.27,27.5-10.16l-.98-10.29c.62-8.04-1.02-19.39,1.29-27.05,2.17-7.19,23.17-11.82,23.7-1.76.17,3.3-2.69,8.72-3.64,12.24-2.56,9.53-3.66,20.41-2.63,30.22,4.96.05,10.28,2.04,14.71,4.24,11.59,5.77,23.4,14.39,29.66,25.98,1.91,3.53,7.21,14.22,2.28,16.68-2.64,1.32-3.13-.03-5.4-.84v10.79l-2.88,10.79c-3.15,2.09-8.16,6.21-9.6,9.59-1.42-.34-1.11-2.21-1.43-2.88,2.86-6.88,5.86-14.02,6.24-21.59-4.99.87-6.36-4.35-8.86-7.21-1.63-1.85-10.07-10.48-11.76-10.82s-7.62,3.87-9.57,4.86c-2.32,1.17-8.59,4.36-10.78,4.04-3.53-.52-6.03-7.55-8.25-10.1-1.33-.21-12.73,5.16-15.39,5.68-6.59,1.29-7.34-6.43-10.47-10.46l-9.21,2.53c-1.16,2.99-1.6,6.25-1.55,9.48-1.38-.06-5.81.35-7.67.48l-.02.02ZM204.63,7.97c-.74-.66-7.52,1.52-7.69,2.24-1.76,17.76-.25,35.35,2.42,52.93,1.35.3,1-.68.97-1.69-.14-4.8-1.31-10.37-1.48-15.32-.45-13.16,1.44-25.78,5.77-38.16h.01ZM207.52,55.94c-.08,5.87,4.05,11.57-3.47,14.04-3.39,1.11-7.52,1.24-10.24-1.54s-1.93-11.92-3.44-15.27c-1-2.21-5.33-.71-7.21-.24-11.04,2.75-19,10.01-26.48,18.12,3.74-.25,8.33-3.09,12.01-1.95,2.81.87,5.19,7.56,6.98,9.9,2.99-.96,5.99-1.96,8.94-3.04,1.96-.72,7.05-3.35,8.63-3.15,4.19.54,5.47,8.14,8.05,9.77,1.97,1.25,13.26-6.94,17.06-7.42,8.27-1.02,12.22,8.14,17.7,11.96.41.28.48.67,1.2.47.63-4.27,1.65-7.35,6.71-5.99-3.41-5.71-7.88-11.13-13.46-14.83-1.39-.92-3.02-1.41-4.42-2.3-5.92-3.74-11.28-7.5-18.56-8.54h0Z"/>
          <path class="cls-10" d="M154.76,89.04c-.05-3.23.39-6.5,1.55-9.48l9.21-2.53c3.14,4.02,3.88,11.75,10.47,10.46,2.66-.52,14.06-5.89,15.39-5.68,2.23,2.55,4.72,9.58,8.25,10.1,2.19.32,8.46-2.87,10.78-4.04,1.96-.98,7.88-5.2,9.57-4.86s10.13,8.96,11.76,10.82c2.5,2.85,3.87,8.08,8.86,7.21-.37,7.57-3.38,14.71-6.24,21.59-2.38-4.86-6.84-11.12-12-13.19-6.17-2.47-16.43-3.07-22.39.13-.79.42-6.48,4.83-6.85,4.41-.33-2.74-2.39-6.42-3.93-8.78-5.38-8.2-24.85-15.75-34.44-16.17h0ZM198.27,94.89c-4.79,1.08-3.85,8.22,1.7,7.01,4.35-.95,3.36-8.15-1.7-7.01ZM219.48,100.26c0-2.02-1.64-3.65-3.65-3.65s-3.65,1.64-3.65,3.65,1.64,3.65,3.65,3.65,3.65-1.64,3.65-3.65Z"/>
          <path class="cls-4" d="M204.63,7.97c-4.33,12.38-6.23,25-5.77,38.16.17,4.94,1.34,10.52,1.48,15.32.03,1.02.38,1.99-.97,1.69-2.67-17.57-4.18-35.16-2.42-52.93.17-.72,6.95-2.89,7.69-2.24h-.01Z"/>
          <path class="cls-5" d="M207.52,55.94c7.27,1.04,12.63,4.8,18.56,8.54,1.4.88,3.03,1.37,4.42,2.3,5.58,3.71,10.06,9.13,13.46,14.83-5.06-1.36-6.08,1.72-6.71,5.99-.72.2-.79-.19-1.2-.47-5.48-3.82-9.43-12.98-17.7-11.96-3.8.47-15.09,8.66-17.06,7.42-2.58-1.63-3.86-9.23-8.05-9.77-1.57-.2-6.66,2.43-8.63,3.15-2.95,1.08-5.95,2.08-8.94,3.04-1.79-2.34-4.17-9.02-6.98-9.9-3.67-1.14-8.27,1.7-12.01,1.95,7.48-8.11,15.44-15.37,26.48-18.12,1.88-.47,6.21-1.97,7.21.24,1.51,3.35.85,12.61,3.44,15.27s6.84,2.66,10.24,1.54c7.52-2.47,3.39-8.17,3.47-14.04h0Z"/>
          <path class="cls-2" d="M198.27,94.89c5.06-1.14,6.05,6.06,1.7,7.01-5.56,1.21-6.49-5.93-1.7-7.01Z"/>
          <circle class="cls-1" cx="215.83" cy="100.26" r="3.65"/>
        </g>
      </g>
    </g>
  </g>
</svg>