<?xml version="1.0" encoding="UTF-8"?>
<svg id="Ebene_2" data-name="Ebene 2" xmlns="http://www.w3.org/2000/svg" viewBox="0 0 509.38 350.01">
  <g id="Ebene_3" data-name="Ebene 3">
    <path d="M463.81,108.78c.29,6.7-.39,13.72,0,20.39.93,15.63,3.06,31.29,3.83,47.02,2.35,48.04-.38,94.18-3.35,142-.36,5.88.15,13.04-.48,18.71-.93,8.28-11.17,8.79-12.01-1.9-.76-9.77.48-20.08.97-29.77,2.43-48.06,4-93.79.97-142-2.03-32.27-3.31-63.06-3.34-95.48-.01-12.31-.34-26.62.44-38.86,1.68-26.41,20.25-31.07,42.56-21.9,10.8,4.44,10.98,17.59,12.08,27.74,2.96,27.31,1.68,57.55,2.46,85.33.64,22.96,1.11,46.11,1.41,69.11.34,26.21-2.25,52.4-3.82,78.65-.91,15.17-2.32,30.38-3.35,45.58-.67,9.86-.22,19.79-1.5,29.69s-13.47,8.66-13.42-.43c.02-3.22,1.66-8.49,1.95-12,.58-6.97.07-14.6.49-21.58.57-9.31,1.85-17.38,1.89-26.85.07-14.37,2.4-29.31,3.37-43.68,2.53-37.52,1.68-75.17.46-112.71-.19-5.77.46-11.74-.91-17.32-.86-.6-9.34-.08-11.32-.19-3.66-.2-9.51-1.5-12.9-.95-1.98.32-3.86,2.25-6.51,1.41h.03ZM494.03,94.87c.04-20.41,1.08-40.8-1.5-61.11-.37-2.93-1.09-10.5-2.1-12.78-.87-1.96-6.53-3.21-8.78-3.7-3.72-.81-10.79-2.28-14,.11-5.66,4.22-3.63,25.12-3.83,32.15-.22,7.71-.54,14.17-.48,22.03s-.08,15.21-.02,22.81l30.7.48h.01Z"/>
    <g>
      <path d="M321.85,102.55c-3.48,1.07-8.52-3.31-10.79-3.4-5.84-.21-13.59,0-19.66,0-1.83,0-3.97.97-6,.52.01,4.15-.81,8.59-.98,12.7-1.26,31.91-.84,64.11-.92,95.95-.05,21.95.71,44.39-.98,66.22-1.2,15.5-3.93,31.45-3.85,47.04,0,1.28.59,2.42.52,3.8-.37,7.66-11.61,9.58-12.51-.44-1.88-20.9,3.12-43.41,3.88-64.28.8-22.2-.58-44.57-.52-66.72.06-18.79,1.03-37.77,1.48-56.57.27-11.37-.7-22.81.99-34.09.24-1.07-2.89-3.28-3.65-3.58-1.43-.56-.23,2.96-.95,3.35-2.74-2.87-.18-5.4.21-7.94.7-4.64-1.14-6.22,4.85-8.2.81-15.05.88-30.5,2.92-45.43,1.26-9.18,3.48-19.15,7.52-27.49,2.1-4.35,2.66-3.63,5.59-6.4s5.54-6.59,9.64-7.14c4.94-.67,11.43-.83,16.02,1.16,3.67,1.6,14.18,11.06,16.08,14.62,3.76,7.04,4.28,24,4.57,32.37.81,24.05-.3,49.25-.48,73.44-.42,56.72-2.15,113.57-1,170.3.23,11.2-.5,23.22,0,34.06.16,3.37,1.66,4.54.11,8.23-2.21,5.26-9.6,5.71-12.49.79-1.6-2.72-.56-3.37-.55-5.69.29-56.72-.04-113.52.46-170.32.03-3.65-.02-7.38,0-10.99.08-15.32.57-30.51.5-45.83v-.04ZM285.88,86.23c3.3-.7,6.25-.03,9.33.02,5.78.09,17.34-1.41,21.95.59,1.11.48,3.52,2.53,4.42,2.26l.67-.79.1-42.16c-1.48-5.94.23-20.03-3.65-24.65-.78-.93-2.58-1.75-3.57-2.67-1.86-1.73-4.12-4.76-6.68-5.33-1.35-.3-7.2.26-8.15,1.03-.43.35-4.99,4.98-5.22,5.33-6.53,9.76-8.1,38.57-8.73,50.75-.27,5.18-.16,10.44-.46,15.61h-.01Z"/>
      <path d="M375.57,192.72c4.53,2.55,8.08,8.73,9.56,13.71,7.15,23.98,9.52,49.58,13.61,74.18,2.03,12.26,4.29,24.27,6.14,36.55.82,5.44,4.82,17.06,4.14,21.53-1.24,8.12-11.29,9.15-12.99,1.69-.41-1.78.19-2.4.07-3.84-.35-4.27-2.89-10.88-3.6-15.63-3.92-26.2-8.1-52.6-12.95-78.67-1.97-10.58-3.5-20.91-6.61-31.29-1.02-3.39-2.29-5.62-5.04-7.92-1.75-1.46-8.3-5.38-10.33-5.98-.9-.27-.63.15-.71.7-.78,5.92.08,14.81.02,21.14-.31,30.48.48,61.04,1.44,91.59.19,5.93.64,12.92-.02,18.73-.89,7.85-11.11,7.9-11.99-.97-2.98-30.16-2.2-61.29-2.38-91.64-.36-58.38-.29-116.7-1.93-175.09-.22-7.73,1.4-13.81,1.91-21.11.36-5.24-.03-10.55.49-15.82.54-5.47,1.57-15.29,6.47-18.48,6.11-3.98,22.19-1.24,28.22,2.49,19.24,11.91,18.35,31.43,19.01,51.51.99,30.12-.05,60.55-1.92,90.63-1.01,16.26.7,30.76-16.6,39.53-.8.41-4.84,1.28-4.01,2.46h0ZM356.86,181.7c8.19.15,19.48-2.36,23.9-9.92,3.84-6.57,2.59-18.79,2.94-26.32,1.34-28.68,2.45-57.62,1.44-86.31-.4-11.23.76-27.17-8.13-35.52-5.1-4.8-11.33-6.37-18.26-5.78-1.97,1.38-1.66,19.78-1.9,23.05-.53,7.42-2.13,13.16-1.93,21.13.7,27.56,1.57,54.96,1.44,82.47-.06,12.42.3,24.8.5,37.2h0Z"/>
    </g>
    <path d="M240.17,320.19c1.31-1.17,2.84-6.41,3.02-8.25,1.65-16.75-.02-33.66-.95-50.37-1.67-30.01-2.81-60.17-7.62-89.76-.38-2.34-.55-5.01-.53-7.38-3.36.19-6.39-.06-9.68-.63-3.07-.54-12.8-2.96-14.52-5.14-1.99-2.52-2.08-5.73-.26-8.38,4.1-5.99,12.58-.39,18.05.18,4.21.44,11.28-.93,14.74,1.09,4.29,2.51,4.47,8.73,5.1,13.12,4.67,32.6,6.31,65.82,8.16,98.81.71,12.6,1.89,24.7,1.45,37.44-.72,20.9-3.07,32.35-25.43,37.4-7.54,1.7-15.29.31-22.74-.77-7.55-1.1-19.09-12.07-22.44-18.81-9.58-19.3-8.12-41.9-8.57-62.91-.63-29.15.41-57.71.96-86.87.51-26.98.57-54.09,1.92-81.07,1.38-27.46.03-50.52,21.1-71,10.23-9.95,21.84-10.86,35.22-7.36,5.86,1.53,9.76,7.9,14.2,11.71,2.26,1.94,5.5,2.47,6.12,5.86.94,5.09-2.1,9.95-7.7,8.66-.5-.12-7.22-5.31-8.24-6.14-1.39-1.13-6.22-6.11-6.98-6.45-1.86-.84-10.99-1.89-13.17-1.69-8.16.78-18.95,14.53-21.91,21.73-2,4.88-2.8,9.87-3.67,15.04-5.82,34.47-4.83,72.35-4.9,107.4-.06,30.87-.24,62.1.5,93.04.42,17.52-1.08,35.95,6.3,52.23,1.81,3.99,7.67,10.62,11.64,12.34,1.82.79,3.34.25,5.18.58,5.71,1.01,7.01,2.42,13.44,1.18,2.48-.48,10.47-3.27,12.21-4.82h0Z"/>
    <g>
      <path d="M157.35,104.46l-29.74-1.44c-1.02,13.16-.12,26.41-.46,39.6-.03,1.02-.47,1.95-.49,2.86-1.71,60.97-2.81,122.2-2.39,183.26-1.22,6.53-8.71,7.86-11.78,1.69-2.19-4.41-.23-4.21-.22-7.45,0-2.29-.85-5.78-.96-8.17-.72-15.97-.58-32,.97-47.95l.44-98.86c-.05-.98.47-1.93.49-2.86.33-10.7,1.2-21.46,1.46-32.12.77-31.26-1.97-65.34,3.39-95.91,1.02-5.8,6.72-21.73,11.22-25.24,1.79-1.4,8.27-5.7,10.18-6.12,12.67-2.82,26.18-3.5,30.79,11.19,5.59,17.82,1.98,29.34.97,46.96-.19,3.35.19,6.76.04,10.11-1.98,43.96-3.48,87.92-4.8,131.92-.86,28.74-1.99,58-1,86.83.33,9.61,1.05,18,.96,27.78-.04,4.15.76,14.55-.51,17.72-2.03,5.1-9.45,4.77-11.65-.24-1.42-3.23-.82-12.49-.79-16.52.25-34.84-1.72-70.02-.96-105.06.07-3.08.9-6.95,1-10.03.89-29.33,1.04-59.04,2.86-88.29.28-4.54,1.31-9.09.96-13.68l.02.02ZM157.35,91.03c1.01-8.83.45-17.79.96-26.62.85-14.87,4.31-26.54.15-41.42-1.56-5.58-2.55-5.84-8.54-5.35-8.78.71-12.27,3.47-15.68,11.18-3.81,8.62-6.09,25.02-6.63,34.63-.47,8.33.34,17.05,0,25.42.58,3.2,9.79,1.15,12.23,1.15s5.31.87,7.68,1c3.26.18,6.57-.13,9.83,0h0Z"/>
      <g>
        <path d="M85.4,182.66c-.63.91,3.25,2.68,4.06,3.36,8.2,6.84,14.19,31.38,15.54,42.02,3.01,23.61.89,45.17-.44,68.52-.6,10.45.85,21.84.04,32.18-.76,9.63-9.3,11.64-12.94,2.83.45-11.5-.7-23.58-.05-35.01.44-7.72,1.72-15.56,1.96-23.47.76-25.61.3-46.44-8.64-70.56-2.1-5.67-4.78-7.24-9.93-10.21-1.78-1.02-3.82-2.24-5.91-2.01-.19,9.02-.14,18.11-.46,27.13-1.03,29.18-.41,57.76.44,86.83.18,6.27,1.31,13.31.46,19.61-1.12,8.21-12.24,7.67-12.81-.1-.25-3.44.52-8.48.4-12.35-.84-28.14-3.64-56.56-2.44-84.91,1.79-42.43,2.78-80.66.51-123.27-1.25-23.33-1.56-46.69-2.42-70.02-.23-6.13-.19-13.56.14-19.57.09-1.67,1.37-4.39,2.78-5.38,3.41-2.38,10.15.39,14.18,1.13,6.18,1.14,8.67-.15,14.11,4.6,17.76,15.52,13.52,45.01,14.36,66.23.98,24.56,3.52,49.68,1.93,74.33-.62,9.61-4.95,24.47-14.86,28.08h0ZM65.26,21.47c.09,2.62-.14,5.29,0,7.91,1.13,20.63,1.36,41.3,2.39,61.89.73,14.61,1.12,29.02,1.42,43.67.02,1.13.5,2.18.52,3.32.2,10.72-1.25,24.92-.04,35.06.03.29,0,.58.1.86l1.1.8c3.16-1.61,9.41-3.45,11.79-5.99,2.59-2.77,4.5-10.65,4.78-14.41,1.06-14.58-.16-30.03-.49-44.59-.43-18.95-.42-38.2-1.4-57.13-.43-8.4-1.79-19.21-7.22-25.88-3.98-4.87-7.12-4.32-12.94-5.53v.02Z"/>
        <path d="M15.38,169.22l-.02,26.17c1.9,17.71,1.76,35.46,2.4,53.25.67,18.69,3.92,38.91,2.92,57.57-.2,3.81-1.34,8.11-1.48,11.95-.25,6.83,1.59,15.86.39,22.46s-10.55,7.55-13.19.94c-1.27-3.18-.13-4.63-.1-7.53.05-5.65-.79-11.27-.52-16.83.28-6,1.75-23.98,1.67-30.12-.22-16.62-2.49-20.88-3.1-37.48-.75-20.2-1.72-40.27-2.36-60.49C.43,139.7-1.04,89.47.99,39.92c.33-7.99,1.49-23.01,3.6-30.46,1.15-4.06,4.22-5.36,8.18-5.73,7.72-.72,16.4.76,23.87,2.49,4.41,1.02,5.65,8.31,2.46,11.38-3.97,3.82-11.18-.39-16.29-.46-1.76-.03-3.71.62-5.52.7-.44.3-1.2,5.32-1.34,6.34-1.95,14.11-1.49,21.03-1.84,35.22-.67,27.24-.99,62.75.81,89.92.1,1.45-.55,5.99.79,6.41,2.08.65,6.29.28,8.56.55,3.66.44,9.49.83,11.48,4.35,2.41,4.25.07,10.19-4.89,10.9-2.33.33-14.69-3.05-15.46-2.3h-.02Z"/>
      </g>
    </g>
    <g>
      <path d="M422.25,340.8c-1.17-1.18-1.73-3.31-2.03-4.93-3.63-19.54-.58-40.21-2.95-59.89-.02-23.04.09-46.08.04-69.12-.05-27.54,2.28-55.81,3.35-83.43.36-9.36.17-19.53.95-28.8.48-5.72,4.36-13.64,10.8-8.42,3.87,3.13,2.2,5.54,2.12,9.35-.44,21.92-1.79,43.83-2.88,65.72-2.12,42.71-1.39,84.37-.44,127.13.27,12.15-1.07,26.57.5,38.36.33,2.47,1.57,3.68,1.42,6.77-.27,5.76-5.62,12.58-10.89,7.26h.01Z"/>
      <path d="M426.27,62.35c5.79-1.32,8.05,3.98,8.31,8.75.18,3.35-.07,5.15-2.88,7.22-3.19,2.36-7.21,1.34-8.67-2.38-.35-.89-1.69-5.12-1.8-5.91-.41-2.85,2.17-7.03,5.04-7.69h0Z"/>
    </g>
  </g>
</svg>