<?xml version="1.0" encoding="UTF-8"?>
<svg id="Ebene_2" data-name="Ebene 2" xmlns="http://www.w3.org/2000/svg" viewBox="0 0 321.88 200.21">
  <defs>
    <style>
      .cls-1 {
        fill: #f1cecb;
      }

      .cls-2 {
        fill: #fff;
      }

      .cls-3 {
        fill: #dcb4b4;
      }

      .cls-4 {
        fill: #e7cccb;
      }

      .cls-5 {
        fill: #e2cfd1;
      }
    </style>
  </defs>
  <g id="Ebene_1-2" data-name="Ebene 1">
    <g>
      <path class="cls-4" d="M29.29,157.16c.05.28.79.69.47,1.44-.76-.09-1.03-1.07-1.43-1.44h.96,0Z"/>
      <polygon class="cls-3" points="86.84 117.34 86.6 118.31 86.36 117.34 86.84 117.34"/>
      <path class="cls-5" d="M273.41,145.65h.48l-.24.47-.24-.47h0Z"/>
    </g>
    <g>
      <path class="cls-2" d="M47.5,175.63c-11.59,1.05-24.97.6-34.49-7-6.99-5.58-11.97-18.54-12.94-27.35-.52-4.74,2.08-14.4,4.02-18.9,1.47-3.41,7.85-16.27,10.09-18.22s10.13-5.47,12.93-5.77c7.27-.79,11.64,2.06,17.99,4.8.4-.4-2.37-4.29-2.65-5.26-1.46-5.1-1.59-14.58-1.2-19.94,1.66-23.02,26.64-45.63,50.1-41.92,7.18,1.13,13.51,7.57,18.98,11.95,1.2-3.09.94-6.61,1.56-9.72,1.81-9.05,4.82-17.45,11.15-24.35,4.93-5.38,12.78-12.51,20.21-13.37,14.57-1.69,24.62.09,36.78,8.67,10.68,7.53,15.99,24.4,17.6,36.85,3.37-3.85,6.99-6.73,11.86-8.52,10.38-3.81,20.48-4.23,30.92-.45,12.53,4.53,20.45,9.45,26.86,21.59,5.48,10.39,2.03,21.17-1.54,31.52,3.12-.91,6.47-2.45,9.81-2.41,20.03.24,42.29,14.13,45.8,34.82,1.78,10.47-.72,31.17-8.66,38.78-9.59,9.2-24.54,15.51-37.97,12.65-2.61-.56-10.45-5.77-11.56-5.57-1.44.26-1.88,5.53-2.48,7.11-1.23,3.3-5.86,7.09-9.01,8.73-13.24,6.92-22.59,2.21-34.06-4.96-1.13-.71-2.24-2.05-3.44-2.79-.49.01-3.36,5.54-4.08,6.47-2.81,3.62-8.98,10.38-12.8,12.62-13.7,8-30.95,4.81-42.84-4.94-5.42-4.45-7.83-10-11.75-15.59-.11,6.2-3.68,10.99-8.43,14.59-6.97,5.27-14.38,9.91-23.2,10.38-12.72.67-23.5-6.74-30.69-16.84-3.59-5.04-4.02-11.84-5.59-17.67-2.9-.96-2.99.7-4.11,1.29-4.22,2.2-6.32,4.84-10.93,6.35-3.74,1.23-7.89,1.7-11.77,2.38h-.48.01Z"/>
      <path class="cls-1" d="M47.5,175.63h.48c-.1.02-.22.36-.48,0Z"/>
    </g>
  </g>
</svg>