<?xml version="1.0" encoding="UTF-8"?>
<svg id="Ebene_2" data-name="Ebene 2" xmlns="http://www.w3.org/2000/svg" viewBox="0 0 344.37 231.17">
  <defs>
    <style>
      .cls-1 {
        fill: #fff;
      }
    </style>
  </defs>
  <g id="Ebene_1-2" data-name="Ebene 1">
    <path class="cls-1" d="M103.24,193.77c-2.67,8.12-12.28,19.64-20.61,22.32-21.7,6.96-55.97,3.4-71.48-14.87-2.9-3.42-2.41-4.62-4.06-7.93-2.97-5.96-5.17-8.69-6.34-15.73-4.15-25.08,8.97-67.28,39.01-69.12,5.57-.34,13.21,1.23,18.17,3.76,1.32-1.2.46-3.17.84-4.9.49-2.2,3.31-9.89,4.46-11.85,3.73-6.32,18.46-16.45,25.84-15.35,1.53.23,5.98,1.2,7.47,1.63,1.08.31,5.58,3.31,6.22,2.65-.54-6.2-1.37-12.07-.91-18.42,1.69-23.2,9.22-44.25,28.77-58.06,9.41-6.65,27.26-9.1,38.45-7.36,3.4.53,9.3,3.58,12.83,4.91,8.12,3.06,11.99,4.65,18.93,10.33,10.73,8.8,14.78,19.1,17.04,32.61,6.75-1.5,13.87-1.28,20.63.23,6.37,1.43,13.09,5.5,17.76,10.06s5.51,12.85,3.34,18.96c-.12.33-2.02,2.25-1.68,3.35l2.16-3.35c14.69-5.02,36.76-3.79,49.84,5.56,20.52,14.67,37.57,38.53,33.97,65.08-3.04,22.42-25.45,46.93-49.06,46.92l-24.67-7.7c-.21.79.83.22.96.78.17.7.07,2.44-.11,3.19-.29,1.23-4.57,9.74-5.46,11.32-2.24,3.95-8.41,11.19-12.03,13.88-7.42,5.51-20.88,13.16-30.11,14.01-6.34.59-22.14.74-28.28-.06-3.36-.44-6.15-3-9.26-4.17-3.58-1.34-7.43-1.7-10.85-4.02-5.02-3.41-13.22-17.01-15.05-22.84-.69-2.2-.98-5.01-1.58-7.3l-1.71,3.32c-6.72,8.76-14.71,13.78-25.86,14.91-6.77.69-10.98.02-16.7-3.46-4.59-2.79-8.82-7.52-9.93-12.86-.09-.42.06-.98,0-1.44h-.95c-.07.3.08.72,0,.96v.05Z"/>
  </g>
</svg>