<?xml version="1.0" encoding="UTF-8"?>
<svg id="Ebene_1" data-name="Ebene 1" xmlns="http://www.w3.org/2000/svg" viewBox="0 0 595.2 841.92">
  <defs>
    <style>
      .cls-1 {
        fill: #e2cfd1;
      }

      .cls-2 {
        fill: #dda4a1;
      }

      .cls-3 {
        fill: #dcb4b4;
      }

      .cls-4 {
        fill: #fff;
      }

      .cls-5 {
        fill: #f8e7e5;
      }

      .cls-6 {
        fill: #eedad9;
      }

      .cls-7 {
        fill: #e7cccb;
      }

      .cls-8 {
        fill: #e1aca9;
      }
    </style>
  </defs>
  <polygon class="cls-6" points="594.72 0 595.2 0 595.2 841.92 0 841.92 0 841.44 594.72 841.44 594.72 0"/>
  <path class="cls-2" d="M305.99,549.77c.16,0,.32,0,.48,0h-.48Z"/>
  <g>
    <path class="cls-4" d="M220.62,371.31c-2.5-23.39,11.39-52.59,32.92-62.78,11.39-5.39,36.34-5.56,48.74-2.83.69.15,12.05,6.14,12.59,6.59,1.52,1.26,2.78,3.88,4.29,5.31,4.81,4.55,11.11,7.58,13.56,14.26,3.96,10.81,3.57,20.97,4.91,32.03.09.72.03,1.21.74,1.66.86.18,6.83-6.62,8.16-7.66,6.12-4.78,15.95-5.51,23.12-3,4.85,1.71,16.19,11.96,18.44,16.58,4.72,9.65,3.9,20.68,2.8,31.02,5.48-.58,10.77-2.92,16.3-2.88l.24.47.24-.47c7.85.31,23.41,3.14,29.51,8.14,1.78,1.46,3.07,3.63,4.55,5.05,8.87,8.51,12.99,11.45,16.09,24.21,4.75,19.57,4.27,47.48-7.54,64.47-14.64,21.06-41.91,27.01-65,16.72-1.6-.71-8.86-5.12-9.72-4.39l-4.46,12.09c-.83,1.39-1.7,2.73-2.74,3.97-3.73,4.41-24.2,17.33-29.84,19.08-7.92,2.46-23.32,1.25-32.04.82-.16,0-.32,0-.48,0-15.08-.89-25.68-8.72-35-19.92-6.96-8.37-9.81-14.42-13.11-24.78-.29-.92-.39-1.83-.33-2.79-3.98,3.34-6.58,8.98-10.53,12.25-1.7,1.4-4.1,2.61-5.99,4.08-2.25,1.74-4.27,4.23-6.81,5.66-3.68,2.07-12.39,3.11-16.94,3.92-.22.04-.42.26-.48.48-2.31.33-10.38.32-12.68-.03-1.89-.29-14.59-4.94-16.6-5.95-5.29-2.66-11.2-6.91-14.57-11.81-1.16-1.67-3.53-4.71-1.71-6.2-5.15,1.17-10.16,3.32-15.35,4.31h-9.11c-16.46-5.44-32.22-13.98-39.68-30.59-2.99-6.65-4.03-15.17-4.46-22.4-.56-9.47,4.73-29.11,12.26-35.27,4.25-3.47,12.2-10.05,17.12-11.66,7.38-2.42,24.08-3.39,30.11,2.05.41.37.68,1.35,1.43,1.44.31-.75-.43-1.16-.47-1.44-1.64-9.44-3.74-19.71.87-28.63,8.74-16.9,26.1-23.06,44.33-18.74,5.65,1.34,7.63,4.29,11.87,7.56l.24.96.24-.96Z"/>
    <path class="cls-7" d="M163.07,411.13c.05.28.79.69.47,1.44-.76-.09-1.03-1.07-1.43-1.44h.96Z"/>
    <polygon class="cls-3" points="220.62 371.31 220.38 372.27 220.14 371.31 220.62 371.31"/>
    <path class="cls-1" d="M407.19,399.61c.16,0,.32,0,.48,0l-.24.47-.24-.47Z"/>
    <path class="cls-8" d="M146.76,508.99h.48c-.28.41-.36.04-.48,0Z"/>
    <path class="cls-8" d="M155.39,508.99h.48c-.1.02-.22.35-.48,0Z"/>
    <path class="cls-5" d="M216.79,528.66c.06-.22.26-.44.48-.48-.05.23-.25.45-.48.48Z"/>
  </g>
</svg>