<?xml version="1.0" encoding="UTF-8"?>
<svg id="Ebene_1" data-name="Ebene 1" xmlns="http://www.w3.org/2000/svg" viewBox="0 0 595.2 841.92">
  <defs>
    <style>
      .cls-1 {
        fill: #ecedee;
      }

      .cls-2 {
        fill: #f4f5f6;
      }

      .cls-3 {
        fill: #160400;
      }

      .cls-4 {
        fill: #0a8237;
      }

      .cls-5 {
        fill: #c6d3ed;
      }

      .cls-6 {
        fill: #1d0600;
      }

      .cls-7 {
        fill: #100f10;
      }

      .cls-8 {
        fill: #0e0d0f;
      }

      .cls-9 {
        fill: #fff;
      }

      .cls-10 {
        fill: #03060a;
      }

      .cls-11 {
        fill: #e42c14;
      }

      .cls-12 {
        fill: #088437;
      }

      .cls-13 {
        fill: #210800;
      }
    </style>
  </defs>
  <polygon class="cls-5" points=".48 0 .48 841.44 595.2 841.44 595.2 841.92 0 841.92 0 0 .48 0"/>
  <g>
    <g>
      <path class="cls-9" d="M231.65,339.17c-3.39.65-8.18.82-11.63.36-7.79-1.06-19.26-7.5-22.38-15.04-1.45-3.51-.33-6.8-1.11-9.45-1.22-4.14-5.03,1.1-6.64,2.27-10.25,7.45-18.02,10.01-30.76,7.32s-28.98-10.23-29.19-25.04c-.24-16.9,5.32-33.55,21.3-41.58,9.4-4.73,19.87-3.89,30.05-3.28-.46-1.85-1.14-3.66-1.38-5.57-.83-6.59-.15-14.29,2.45-20.45,1.96-4.64,13.52-17.32,18.38-18.08,5.14-.8,18.98-1.91,23.22.71,1.14.71,8.51,8.35,9.13,7.9.77-2.36.2-4.45,1.07-6.85,1.47-4.08,7.79-11.66,11.63-13.79,4.86-2.69,11.18-2.68,15.59.75.79.61.67,1.57,1.45,1.67v-7.92c0-3.14,3.6-11.42,5.37-14.3,8.83-14.37,22.49-17.09,38.53-15.7,4.81.42,8.03,3.42,11.95,5.8.94.57,2.06.54,3.12,1.19,3.86,2.38,12.94,14.3,13.81,18.8.36,1.84.64,12.14,1.07,12.6,2.77-.23,4.79-2.42,7.41-3.38,10.88-4,20.23-4.58,30.96.26,10.72,4.84,17.6,11.83,20.97,23.16,3.09,10.39,2.92,18.27-2.26,27.92,12.07-3.21,29.63,4.3,36.93,14.16,8.07,10.9,9.57,34.3,2.6,45.77-3.33,5.48-6.06,5.88-10.91,9.24-1.85,1.28-3.41,3.49-5.59,4.48-7.16,3.27-22.28,1.98-29.45-1.26-3.09-1.4-5.27-4.52-8.44-5.7-.43,3.31-2.3,8.64-4.12,11.47-.49.77-8.03,8.26-9.08,9.14-15.47,12.97-36.05,9.24-49.89-3.8-1.73-1.63-3.51-4.36-5.01-6.26-.1-.76-3.04-7.07-3.48-7.54-2.02-2.17-2.15,2.36-2.28,3.23-1.53,1.82-2.35,4.14-3.85,5.98-4.94,6.05-12.99,11.05-20.91,11.7-4.11.34-14.78-2.38-18.44-4.47-4.01-2.29-7.82-9.64-10.05-13.7-.94.5-.74,2.27-1.24,3.31-2.06,4.21-8.31,9.7-12.66,11.08-2.1.67-4.71.45-6.23,2.88ZM330.77,273.61c-2.85-2.88-5.77-3.43-8.96-.89-5.7,4.55-9.81,12.88-11.49,19.88l5.51,2.42,1.68-5.27c2.42.88,3.7,1.77,6.48,1.45,7.05-.81,11.85-12.48,6.78-17.6ZM231.14,296.91c-1.48-7.32-8.62-17.78-17.23-14.11-4.57,1.94-5.07,8.09-4.21,12.36,1.27,6.28,12.31,6.59,13.81-.13l2.63,4.78,5.01-2.9Z"/>
      <path class="cls-7" d="M330.77,273.61c5.07,5.12.26,16.79-6.78,17.6-2.78.32-4.06-.57-6.48-1.45l-1.68,5.27-5.51-2.42c1.68-7,5.79-15.33,11.49-19.88,3.19-2.55,6.1-2,8.96.89ZM321.46,284.85c2.28,2.35,7.27-4.93,4.43-7.09-1.83.84-6.26,5.21-4.43,7.09Z"/>
      <path class="cls-8" d="M231.14,296.91l-5.01,2.9-2.63-4.78c-1.5,6.72-12.54,6.4-13.81.13-.86-4.27-.36-10.42,4.21-12.36,8.61-3.67,15.75,6.79,17.23,14.11ZM221.1,289.76c-4.31-2.98-6.4-1.36-5.68,3.75l1.84.35c.71-.7,1.04-1.98,1.72-2.64.78-.77,1.9-.63,2.13-1.46Z"/>
      <path class="cls-2" d="M321.46,284.85c-1.83-1.88,2.6-6.25,4.43-7.09,2.84,2.16-2.15,9.44-4.43,7.09Z"/>
      <path class="cls-1" d="M221.1,289.76c-.22.83-1.34.69-2.13,1.46-.67.66-1.01,1.93-1.72,2.64l-1.84-.35c-.72-5.11,1.37-6.74,5.68-3.75Z"/>
    </g>
    <g>
      <path class="cls-10" d="M305.03,322.38c.13-.86.26-5.4,2.28-3.23.44.47,3.38,6.78,3.48,7.54.67,5.24-1.66,14.22-1.46,19.89-2.34,45.02.68,89.85,1.94,134.82.67,23.83-.3,47.91-.94,71.46-.21,7.75-.27,14.38-2.9,21.84,8.65-3.86,17-8.38,25.43-12.7,9.43-4.83,19.18-10.69,29.12-14.53,4.83-1.87,6.06-2.9,9.25,1.55,11.92,16.64,22.07,47.08,29.6,66.81,3.53,9.25,6.67,18.69,10.2,27.94.28.21,1.29-1.49,1.74-1.85,1.91-1.49,10.39-3.32,12.77-2.83,3.96.82,5.21,5.81,3.6,9.13-1.15,2.36-7.19,6.99-9.84,7.43s-7.84,0-10.18-1.11c-1.93-.92-4.42-10.69-5.42-13.29-7.93-20.71-15.5-41.82-24.11-62.24-3.82-9.07-7.79-18.08-13-26.43-15.84,5.81-30.26,14.72-45.26,22.36-5.22,2.66-13.95,5.48-18.2,9.14-1.22,1.06-2.34,3.33-3.61,4.55-11.71,11.21-23.08,14.96-38.16,6.94-1.06-.57-3.08-2.37-3.69-2.54-4.08-1.18-14.95-.09-19.54-.08-24.56.07-49.01.6-73.39,3.35-2.82.32-5.53,1.3-8.36,1.47-.96,13.46-3.91,26.62-5.31,40.02-2.12,20.34-4.13,41.96-2.9,62.38.28,4.7,2.63,9.1.92,13.35-2.71,6.72-10.74,16.21-18.82,11.75s6.54-17.6,12.19-17.98c.33-1.95-.46-3.86-.53-5.68-1.1-30.57,2.04-59.23,6.66-89.32.53-3.46,1.71-18.06,3.21-19.82,1.37-1.6,2.68-.5,4.09-.71,28.93-4.38,58.27-4.94,87.51-5.58l9.82.99c-6-8.03-8.65-15.82-10.07-25.67s-3.14-19.21-3.83-28.79c-2.15-29.76-5.12-59.41-5.74-89.24-.67-31.97-1.08-64.01-1.96-95.91-.08-2.8.1-5.62.02-8.42,1.53-2.43,4.14-2.21,6.23-2.88.32,15.46.66,30.88.94,46.31.48,26.41-.18,53.27.96,79.63.59,13.7,3.06,27.99,4.33,41.72.57,6.15.7,12.39,1.45,18.47,3.21-2.11,6.48-4.2,10.17-5.41,1.21-.39,5.51-.86,5.65-1.56-3.96-7.07-3.25-16.2-1.31-23.84,1.47-5.77,5.06-9.47,11.24-7.2,3.09,1.14,6.43,6.13,5.79,9.35-.24,1.2-1.47,2.5-1.96,3.82-1.85,5.04-1.97,12.16-.11,17.18,2.95.71,5.93.9,8.88,1.67,6.07,1.6,11.13,4.77,16.27,8.19l4.83,4.51.5-43.43c-2.07-49.49-5.16-99.11-1.93-148.69.31-4.82.71-9.87,1.43-14.64ZM269.9,490.41c-.46-.44-2.19-.85-2.7-.54-3.46,9.09-3.68,18.73,1.38,27.28.85.12.47-1.08.36-1.56-1.74-8.02-1.92-11.88.45-19.92.55-1.87,2.53-3.33.49-5.26ZM264.74,521.46c-1.45.66-3.15.02-4.34.21-3.66.59-8.33,3.22-11,5.79,2.24.28,6.75.71,6.76,3.83,0,2.26-6.46,5.14-6.53,8.39,6.45-2.04,11.25-10.16,13.43,1.45,2.75-1.09,7.44-6.71,10.07-6.73,3.17-.02,7.16,5.01,8.57,4.74,4.54-3.65,2.56-8.86,10.08-5.62,1.62.7,3.06,2,4.61,2.82l.75-6.23c-5.89-4.54-12.73-8.47-20.41-8.64,1.41,4.31-.63,10.17-5.95,9.58-4.17-.46-5.4-6.19-6.05-9.58ZM302.15,543.05c-1.1-.28-1.77.8-2.67.96-3.27.55-7.18-3.55-10.03-4.81-1.81,2.7-5.97,8.92-9.85,6.97-.61-.31-.88-1.41-1.47-1.88s-4.24-3.18-4.51-3.18c-5.91,2.91-13.16,14.2-16.07,1.94-4.56,1.26-6.72,1.81-7.94,6.69-3.36,13.49,6.37,40.61,21.35,43.47,6.81,1.3,10.99.77,16.88-2.83,15.73-9.61,19.02-30.64,14.31-47.32ZM416.44,646.81c-.52.42-.93,1.95-1.56,2.5.76,1.07,1.79.77,2.9.51,1.22-.28,6.65-3.81,5.72-5.07-1.64,1.24-5.77,1.01-7.06,2.06ZM134.77,720.07c3.56,0,5.47-3.4,7.18-6-1.87.3-4.94,2.88-6.24,4.31-.48.53-1.13.82-.95,1.69Z"/>
      <path class="cls-11" d="M302.15,543.05c4.71,16.68,1.41,37.71-14.31,47.32-5.9,3.6-10.07,4.14-16.88,2.83-14.97-2.86-24.71-29.98-21.35-43.47,1.22-4.88,3.38-5.43,7.94-6.69,2.92,12.27,10.16.97,16.07-1.94.28,0,3.92,2.71,4.51,3.18s.86,1.57,1.47,1.88c3.88,1.95,8.04-4.27,9.85-6.97,2.84,1.26,6.76,5.36,10.03,4.81.9-.15,1.56-1.23,2.67-.96ZM292.22,558.22c0-1.5-1.21-2.71-2.71-2.71s-2.71,1.21-2.71,2.71,1.21,2.71,2.71,2.71,2.71-1.21,2.71-2.71ZM270.84,559.39c0-1.62-1.32-2.94-2.94-2.94s-2.94,1.32-2.94,2.94,1.32,2.94,2.94,2.94,2.94-1.32,2.94-2.94ZM289.55,568.57c-1.93.58-3.41,6.32-6.44,7-2.68.6-6.6.09-8.93-1.42-1.96-1.26-3.54-4.86-6.08-1.61-3.31,4.23,6.05,8.54,9.37,8.88,6.67.67,11.23-.27,14.83-6.26,1.88-3.13,1.71-7.92-2.74-6.59Z"/>
      <path class="cls-4" d="M269.9,490.41c2.04,1.93.06,3.39-.49,5.26-2.37,8.04-2.2,11.9-.45,19.92.11.48.49,1.68-.36,1.56-5.07-8.55-4.84-18.19-1.38-27.28.5-.31,2.23.11,2.7.54Z"/>
      <path class="cls-12" d="M264.74,521.46c.65,3.39,1.88,9.12,6.05,9.58,5.32.58,7.36-5.27,5.95-9.58,7.68.17,14.52,4.09,20.41,8.64l-.75,6.23c-1.55-.82-3-2.12-4.61-2.82-7.52-3.24-5.54,1.98-10.08,5.62-1.41.27-5.4-4.76-8.57-4.74-2.62.02-7.31,5.64-10.07,6.73-2.18-11.61-6.98-3.49-13.43-1.45.07-3.25,6.54-6.13,6.53-8.39-.01-3.12-4.52-3.55-6.76-3.83,2.68-2.56,7.34-5.2,11-5.79,1.18-.19,2.89.45,4.34-.21Z"/>
      <path class="cls-3" d="M289.55,568.57c4.45-1.33,4.62,3.46,2.74,6.59-3.6,6-8.15,6.94-14.83,6.26-3.32-.34-12.67-4.64-9.37-8.88,2.54-3.25,4.12.35,6.08,1.61,2.34,1.5,6.25,2.02,8.93,1.42,3.03-.68,4.51-6.42,6.44-7Z"/>
      <circle class="cls-13" cx="267.9" cy="559.39" r="2.94"/>
      <circle class="cls-6" cx="289.51" cy="558.22" r="2.71"/>
    </g>
  </g>
</svg>