<?xml version="1.0" encoding="UTF-8"?>
<svg id="Ebene_1" data-name="Ebene 1" xmlns="http://www.w3.org/2000/svg" viewBox="0 0 595.2 841.92">
  <defs>
    <style>
      .cls-1 {
        fill: #e4e6e8;
      }

      .cls-2 {
        fill: #100502;
      }

      .cls-3 {
        fill: #c9d2ec;
      }

      .cls-4 {
        fill: #f9f9fa;
      }

      .cls-5 {
        fill: #098337;
      }

      .cls-6 {
        fill: #f7f7f8;
      }

      .cls-7 {
        fill: #e12c15;
      }

      .cls-8 {
        fill: #e32c14;
      }

      .cls-9 {
        fill: #fefeff;
      }

      .cls-10 {
        fill: #08090f;
      }

      .cls-11 {
        fill: #05050a;
      }

      .cls-12 {
        fill: #220800;
      }

      .cls-13 {
        fill: #e22c14;
      }

      .cls-14 {
        fill: #fefefe;
      }

      .cls-15 {
        fill: #f3f3f4;
      }

      .cls-16 {
        fill: #0b8036;
      }

      .cls-17 {
        fill: #ebebed;
      }

      .cls-18 {
        fill: #088437;
      }

      .cls-19 {
        fill: #130a08;
      }

      .cls-20 {
        fill: #0f0502;
      }
    </style>
  </defs>
    <g>
    <path class="cls-9" d="M216.79,561.76c4.81-11.1,13.82-10.93,23.02-4.8.45-6.64.21-14.24,4.56-19.67,9.84-12.3,21-15.61,36.47-14.4,7.51.59,15.3,6.08,19.33,12.33,2.1,3.26,3.08,7.89,4.94,10.89.81,1.3,2.53,2.24,3.22,3.49,2.82,5.08-.24,13.45-2.33,18.41,3.45-.89,6.92-2.18,10.55-1.92.37,6.98,1.42,14.26,1.91,21.35.44,6.29.55,12.65.97,18.95-4.52-.68-12.78,5.32-12.98,9.84-.38,8.32,16.22,9.72,17.67,2.76.23-1.11-.1-2.3.1-3.16.1-.43,1.21-.66,1.68-1.29,1.52-2.02-.47-10.23-.71-13.2-.9-11.05-1.81-22.28-2.4-33.34,8.62.43,13.18,5.36,15.13,13.41.29,1.2,1.04,9.14,1.9,9.13,1.62-1.53,3.68-3.21,6-3.35-.12,4.55.08,9.13.02,13.69-.08,6.16-2.31,13.91,1.9,19.17,3.42,4.27,9.12,2.62,13.43.49,6.58-3.26,2.85-12.83-3.84-13.48-1.96-.19-3.83.64-5.76.77.14-6.95-.19-13.94-.02-20.9.02-.91.49-1.75.5-2.12,3.71.07,7.93-.25,11.54.69,1.71.45,11.05,6.22,12.17,7.5,1.48,1.7,3.92,10.13,4.89,10.47,2.53.89,5.61-4.07,8.19-4.65,13.55-3.03,30.94,8.53,27.36,23.52-1.89,7.9-7.91,9.47-14.75,11.88,7.64,8.95,5.84,23.35-1.19,32.15-4.85,6.06-18.31,11.28-25.91,11.05-4.83-.14-16.49-4.74-19.03-8.81-1.46-2.33-5.2-13.67-6.95-14.18-2.02-.59-2.76,2.75-4.99,3.96-4.06,2.21-10.48,4.1-15.08,3.67-5.29-.51-8.52-6.13-13.17-8.17v8.4c0,1.72-4.65,8.94-6.07,10.24-8.53,7.82-25.6,8.36-35.15,2.2-5.48-3.53-5.13-4.25-7.92-9.34-2.16-3.94-5-7.69-6.5-11.97l-1.99,4c-1.22,1.92-5.69,4.81-7.9,4.96-4.85.33-6.91-4.85-10.01-7.51-1.06-.02-.64,4.35-.83,5.39-.97,5.28-6.51,12.04-10.96,14.94-9.62,6.29-28.28,4.58-34.88-5.33-.89-1.33-3.41-7.26-4.66-7.38s-6.75,4.66-8.84,5.57c-13.08,5.72-32.89-5.49-35.39-19.33-1.98-10.98.17-22.69,10.28-28.82,7.06-4.28,12.65-3.07,20.29-1.53l-9.1-7.92c-6.22-7.53-5.33-19.15-1.45-27.57,2.37-.21,6.51-2.81,8.15-4.56,3.2-3.42,4.16-6.62,3.84-11.27,2.01-2.23,5.15-2.91,7.67-4.32,1.5,11.13,3.65,22.27,5.21,33.4,1.06,7.56,1.41,15.36,3.42,22.72-4.11,1.16-10.74,3.68-12.56,7.83-3.76,8.57,7.85,10.63,13.49,6.78,1.71-1.17,5.41-5.57,5.35-7.66-.05-1.58-1.43-2.65,0-5.26-2.93-20.06-6.43-40.14-9.15-60.21,6.85-1.46,15.13.43,21.1,3.84-.1,17.99-.69,36.18-.48,53.98.03,2.62.83,6.93.76,8.63-.03.87-.97,1.58-.76,3.31.75,6.03,15.19,7.08,16.66-1.51,1.2-7-3.64-11.31-10.43-9.24.09-15.75-.13-31.52-.02-47.27.02-3.23.48-6.82.5-10.29Z"/>
    <g>
      <g>
        <path class="cls-15" d="M220.51,628.33c-1.11,1.11-5.26.67-5.11-1,.2-2.2,3.11-2.66,4.91-2.17,1.23.36.85,2.51.19,3.17Z"/>
        <path class="cls-1" d="M191.84,625.57c-.01,2.87-3.77,4.15-6.23,3.83-1.06-.91,5.04-4.43,6.23-3.83Z"/>
        <g>
          <path class="cls-8" d="M219.08,282.66c.55.94.24,19.15.1,21.73-1.07,18.92-6.07,48.98-32.38,41.51-6.18-1.76-7.86-4.12-12.52-6.67-.87-.48-1.94-.34-2.45-.66-10.04-6.26-11.92-38.89-10.63-49.47.46-3.8,2.05-6.72,6.14-6.98.75,2.56,5.44,10.35,7.99,10.52,3.09.2,7.1-8.18,9.44-7.6.73.18,4.78,3.27,5.64,4,1.54,1.31,4.74,5.57,6.47,5.57,4.07,0,2.9-7.46,4.12-10.08,4.74-1.1,9.77,7.39,13.08,7.04,4.93-.53.74-7.46,1.75-10.43l3.25,1.53ZM206.68,306.45c0-1.6-1.29-2.89-2.89-2.89s-2.89,1.29-2.89,2.89,1.29,2.89,2.89,2.89,2.89-1.29,2.89-2.89ZM214.88,306.68c0-1.61-1.3-2.91-2.91-2.91s-2.91,1.3-2.91,2.91,1.3,2.91,2.91,2.91,2.91-1.3,2.91-2.91ZM181.6,310.07c-6.13.24-10.48,8.55-10.85,13.99-.44,6.5,4.7,15.27,10.52,18.24,13.87,7.08,29.43-2.22,32.02-16.94.27-1.54-.12-3.18.25-4.55.44-1.66,3.05-3.29-.43-5.09-2.05-1.06-2.48.17-4.28.38-6.11.73-9.78.56-15.54-1.65-3.4-1.31-7.94-4.53-11.69-4.38Z"/>
          <path class="cls-5" d="M189.93,262.41h-1.44c-.05-10.3-3.04-22.66-10.08-30.45-1.1-1.22-5.29-3.77-5.29-4.81.72-1.78,4.75-5.61,6.48-4.09,1.36,1.2,5.67,9.58,6.58,11.68.98,2.27,3.75,10.01,3.75,12.08v15.59Z"/>
          <path class="cls-18" d="M182.25,258.09v8.87c0,.52,2.36,2.08,3.16,2.16,1.03.09,8.23-1,9.02-1.48,1.68-1.04,1.5-6.71,1.73-8.83.08-.72-.27-.82.63-.64,3.68.72,14.53,5.64,17.55,7.88,4,2.97,8.21,8.32,10.1,12.92-3.71-2.06-10.84-7.43-15.11-4.58-2.59,1.73-.32,4.49.02,6.72-2.72-1.67-12.6-5.87-13.94-1.45-.47,1.55-.14,3.64-.7,5.3-3.98-2.2-8.29-7.28-13.29-5.38-1.55.59-5.69,5.36-6.36,4.9-1.46-2.47-3.5-8.92-6.6-9.52-2.29-.45-8.07,4.39-8.76,3.76,4.11-9.3,12.96-17.27,22.54-20.62Z"/>
          <path class="cls-20" d="M181.6,310.07c3.75-.15,8.29,3.07,11.69,4.38,5.76,2.21,9.43,2.39,15.54,1.65,1.8-.22,2.24-1.44,4.28-.38,3.48,1.8.87,3.43.43,5.09-.36,1.37.02,3.01-.25,4.55-2.59,14.72-18.15,24.03-32.02,16.94-5.82-2.97-10.97-11.75-10.52-18.24.37-5.44,4.72-13.74,10.85-13.99ZM207.67,321.9c-3.94.24-7.2.7-11.15-.12-5.16-1.07-9.46-4.31-14.5-5.64l-1.15,5.71c7.56,5.04,16.69,5.56,25.54,4.31,1.11-.36,1.34-3.21,1.26-4.25Z"/>
          <circle class="cls-12" cx="211.97" cy="306.68" r="2.91"/>
          <circle class="cls-12" cx="203.79" cy="306.45" r="2.89"/>
          <path class="cls-4" d="M207.67,321.9c.07,1.04-.15,3.89-1.26,4.25-8.84,1.25-17.98.73-25.54-4.31l1.15-5.71c5.04,1.33,9.34,4.57,14.5,5.64,3.95.82,7.21.36,11.15.12Z"/>
        </g>
      </g>
      <g>
        <path class="cls-11" d="M164.03,582.87c-4.83.43-13.76-4.48-13.93-9.85-.28-8.68,9.46-14.46,17.29-14.14-4.71-14.6-7.24-29.76-9.51-44.93-8.89-59.37-11.67-120.51-4.87-180.29.28-2.44.86-5.05,1.43-7.44-4.38,1.86-9.96-1.72-10.12-6.48-.2-6.14,5.28-11.46,10.61-13.52l.46-16.95c-7.57.62-2.84-9.08-1.18-12.94,4.85-11.26,15.17-20.13,26.64-24.29.52-1.85-2.35-9.45-3.48-11.38-.62-1.06-2.99-4.53-3.74-5.37-1.81-2.04-6.19-4.23-7-6.94-.66-2.21,3.48-7.67,5.32-9.11,2.37-1.86,7.36-3.73,10.06-1.93,3.6,2.4,8.34,11.73,10.05,15.85,2.41,5.82,4.12,12.31,4.14,18.65,12.31,3.33,24.68,8.77,31.37,20.19,2.74,4.68,8.09,17.4-2.16,14.88v7.2s79.61-1.92,79.61-1.92l.48-2.87c-8.86,1.58-5.8-5.53-2.79-10.23,6.1-9.51,14.89-15.83,25.25-20.08.44-6.73.39-16.68,5.1-22,3.11-3.52,13,.44,13.24,4.56.21,3.59-5.1,14.17-3.33,16.97,7.53,1.19,15.33,5.38,21.04,10.38,2.49,2.18,10.55,10.84,11.28,13.66s-.07,5.26-3.13,5.78c.32.67.5,1.61.95,2.16,2.04,2.49,11.16,6.8,14.37,9.13,2.63,1.91,12.6,11.51,15.17,11.1,4.85-9.47,7.66-20.23,10.53-30.56.85-3.06,1.05-6.32,2.02-9.49,1.27-4.16,3.68-8.19,4.79-12.48.88-3.36,1-6.82,1.81-10.18.95-3.93,3-7.94,3.94-11.89,1.42-5.99,2.03-12.78,3.17-18.89.5-2.68,1.54-5.49,1.53-8.06-7.37,3.23-11.15-3.25-10.19-10.19,1.68-12.23,16.25-15.43,17.62-2.04.84,8.25-3.83,31.23-5.89,40.15-1.06,4.58-3.31,8.83-4.34,13.41-.76,3.38-.79,6.75-1.78,10.21-1.14,3.99-3.43,7.69-4.63,11.68-3.06,10.11-4.77,20.75-8.43,30.91-1.65,4.58-4.45,14.26-10.11,13.77-4.28-.37-10.06-4.94-13.48-7.64-.88-.7-6.5-6.69-7.44-5.74,1.29,4,3.02,6.14,1.53,10.4-3.33,9.52-8.37,6.8-16.31,5.01-2.37,3.25-4.65,7.24-7.29,10.23-1.09,1.23-5.13,4.44-5.27,5.32l1.45,15.81c4.41,78.24-1.41,156.27-3.83,234.34-.01.37-.48,1.21-.5,2.12-.17,6.96.17,13.95.02,20.9,1.92-.12,3.8-.96,5.76-.77,6.68.66,10.42,10.22,3.84,13.48-4.31,2.14-10.02,3.78-13.43-.49-4.21-5.26-1.98-13-1.9-19.17.06-4.56-.14-9.14-.02-13.69.26-9.89,1.01-19.62,1.46-29.48,3.18-70.63,5.45-141.34,2.4-212.08-.11-2.51-.91-5.22-.5-7.89-8.93,2.71-16.48,5.64-25.89,2.4-.12,3.59.15,7.22.02,10.81-1.31,36.19-2.77,71.49-2.4,107.9.37,36.37-.04,72.88,1.9,109.16.59,11.06,1.5,22.29,2.4,33.34.24,2.97,2.23,11.18.71,13.2-.47.63-1.59.86-1.68,1.29-.2.86.13,2.05-.1,3.16-1.45,6.96-18.04,5.55-17.67-2.76.21-4.52,8.46-10.52,12.98-9.84-.42-6.29-.53-12.65-.97-18.95-.5-7.09-1.54-14.37-1.91-21.35-1.43-26.92-1.05-53.88-1.42-80.85-.28-20.34-1.52-41-1-61.41.66-26.32,2.65-52.77,3.4-79.11.04-1.52.23-7.6-.26-8.41-.21-.34-2.34-1.76-3.1-2.66-6.96-8.16-9.53-17.4-10.09-28.05-3.77,3.48-6.98,7.61-10.53,11.29-7.14,7.38-15.16,16.18-22.54,23.03-5.23,4.85-9.83,3.04-15.96,1.06-11.29-3.65-21.49-10.35-32.26-15.22-1.61,3.92-2.37,8.07-4.47,11.82s-5.48,6.77-8.12,10.05c1.88,10.12,2.3,20.41,2.74,30.67,2.61,61.02,4.14,122.32,3.86,183.48-.02,3.48-.48,7.07-.5,10.29-.11,15.75.12,31.52.02,47.27,6.79-2.07,11.63,2.24,10.43,9.24-1.47,8.59-15.92,7.54-16.66,1.51-.21-1.73.73-2.44.76-3.31.06-1.7-.73-6.01-.76-8.63-.21-17.8.38-35.99.48-53.98.35-61.86-1.26-123.68-3.34-185.43l-1.94-28.04c-9.73,4.32-19.12,1.89-28.29-2.4l-.98,29.04c-.33,61.31,5.21,122.33,13.45,182.99,2.73,20.08,6.22,40.15,9.15,60.21-1.42,2.61-.04,3.68,0,5.26.06,2.08-3.64,6.49-5.35,7.66-5.64,3.86-17.24,1.79-13.49-6.78,1.82-4.15,8.45-6.67,12.56-7.83-2.01-7.36-2.36-15.16-3.42-22.72-1.57-11.13-3.72-22.27-5.21-33.4-7.73-57.36-13.21-114.99-13.45-172.92-.06-15.08-.06-30.14,1.95-45.07-1.74-1.95-4.8-2.39-6.51-4.1-1.51-1.51-2.55-4.31-4.16-5.92l-1.81-4.17c-.96,10.76-2.66,21.6-3.36,32.38-3.08,47.88-.14,97.84,6.78,145.28,2.49,17.07,5.45,32.77,10.14,49.34.96,3.41,2.48,5.64,2.74,9.49.32,4.65-.65,7.85-3.84,11.27-1.64,1.76-5.78,4.35-8.15,4.56ZM429.58,194.35c-.46.12-1.67,1.42-1.98,1.89-.93,1.41-2.55,7.25-.44,7.62l4.92-3.65c0-1.51-.33-6.44-2.49-5.86ZM189.93,262.41v-15.59c0-2.07-2.77-9.8-3.75-12.08-.91-2.1-5.21-10.48-6.58-11.68-1.73-1.52-5.76,2.31-6.48,4.09,0,1.03,4.19,3.59,5.29,4.81,7.04,7.8,10.04,20.15,10.08,30.46h1.44ZM339.5,242.33l-2.33-.34c-.35.22-1.49,2.58-1.67,3.15-1.19,3.7-1.91,13.07-.97,16.79.51,2.02,1.57,3.79,2.17,5.75,2.71-.21.6-4.18.48-6-.16-2.58-.26-6.58,0-9.1.35-3.55,2.69-6.7,2.32-10.25ZM182.25,258.09c-9.58,3.36-18.43,11.33-22.54,20.62.68.62,6.47-4.21,8.76-3.76,3.09.6,5.14,7.05,6.6,9.52.66.46,4.81-4.31,6.36-4.9,5-1.9,9.31,3.18,13.29,5.38.56-1.66.23-3.75.7-5.3,1.34-4.42,11.21-.21,13.94,1.45-.35-2.23-2.62-4.99-.02-6.72,4.27-2.85,11.41,2.52,15.11,4.58-1.89-4.6-6.11-9.94-10.1-12.92-3.02-2.25-13.87-7.16-17.55-7.88-.9-.18-.55-.08-.63.64-.23,2.12-.04,7.79-1.73,8.83-.79.49-7.99,1.58-9.02,1.48-.8-.07-3.16-1.64-3.16-2.16v-8.87ZM343.89,264.81c.31,1.96,1.73,3.54.51,5.55s-9.57,4.93-11.28,2.58c-.87-1.19-2.84-7.78-3.93-8.09-4.95,1.75-10.21,5.2-14.08,8.83-.78.74-6.96,7.26-6.23,7.92,5.52-.36,11.47-5.16,15.82.24,1.1,1.36,1.63,3.39,3.12,4.55,2.29-1.2,5.08-6.86,6.93-7.45,4.26-1.37,8.53,5,12.24,6.5,1.14-.22.1-5.01,3.26-6.36,3.88-1.65,11.04,6.32,11.86,5.39-.31-2.44.81-4,2.91-5.06.23-3.42-16.76-14.97-21.13-14.6ZM219.08,282.66l-3.25-1.53c-1,2.97,3.18,9.9-1.75,10.43-3.31.36-8.34-8.14-13.08-7.04-1.22,2.63-.04,10.09-4.12,10.08-1.73,0-4.93-4.26-6.47-5.57-.86-.73-4.91-3.82-5.64-4-2.34-.58-6.35,7.8-9.44,7.6-2.55-.16-7.23-7.96-7.99-10.52-4.09.26-5.68,3.18-6.14,6.98-1.29,10.58.59,43.2,10.63,49.47.52.32,1.58.19,2.45.66,4.66,2.55,6.34,4.91,12.52,6.67,26.31,7.48,31.31-22.59,32.38-41.51.15-2.58.45-20.79-.1-21.73ZM353,286.39c.17,2.3-1.96,7.18-4.56,7.17s-8.72-6.68-11.53-7.66c-2.13,1.34-6.71,8.09-9.1,8.22-3.81.21-6.53-8.03-8.24-8.61-2.02-.69-6.04,1.62-8.06,2.34-3.64,15.99-1.54,45.94,19.71,47.92,7.81.73,19.66-5.26,24.63-11.24.85-1.02,6.22-8.55,6.22-9.11-.02-1.69-1.36-2.93-.81-6.12.69-4.03,4.22-5.34,4.6-6.43s.9-9.4.56-9.75c-1.05.06-1.62.49-2.72.13-2.86-.93-6.7-5.27-9.26-6.61-.49-.26-.9-.3-1.44-.24ZM303.59,297.92c-1.41-.05-2.64.55-4.07.52-19.85-.41-39.97.39-59.93,1.42-3.39.17-9.56-.66-12.4-.01-.14.03-1.33,1.62-2.27,1.75l-1.35,17.59c4.16,2.79,9.24,4.58,13.78,6.85,2.28,1.14,4.37,2.8,6.67,3.88,4.01,1.89,17.62,7.86,21.34,6.75l18.31-19.1,19.92-19.65ZM376.43,314.63c2.15-3.41,1.18-6.93-1.13-9.99-.61,1.37-3.93,2.37-4.43,2.99-.76.93-.86,4.38-1.56,5.63l7.13,1.37ZM155.87,312.31c-1.42-1.26-6.97,5.91-5.27,8.15,3.94-.7,4.98-4.61,5.27-8.15ZM164.39,565.24c-4.49.57-11.17,6.07-6.09,9.68,3.96,2.81,7.79,2,10.44-1.97,2.83-4.24.96-8.38-4.35-7.71ZM317.02,613.09c-.43-.52-5.03,3.06-4.31,3.83l5.27.48c-.28-1.53-1.33-2.6-.96-4.31ZM358.25,615.47c1.25-4.03-6.16-2.3-6.2-.24l.76,1.74,5.43-1.5ZM220.51,628.33c.66-.66,1.03-2.81-.19-3.17-1.8-.49-4.71-.04-4.91,2.17-.15,1.67,3.99,2.11,5.11,1ZM191.84,625.57c-1.19-.6-7.29,2.92-6.23,3.83,2.46.32,6.22-.96,6.23-3.83Z"/>
        <path class="cls-13" d="M353,286.39c.53-.06.95-.01,1.44.24,2.56,1.34,6.4,5.68,9.26,6.61,1.11.36,1.67-.07,2.72-.13.34.35-.2,8.7-.56,9.75s-3.91,2.4-4.6,6.43c-.55,3.19.79,4.44.81,6.12,0,.55-5.36,8.08-6.22,9.11-4.97,5.98-16.82,11.96-24.63,11.24-21.24-1.98-23.35-31.92-19.71-47.92,2.02-.72,6.04-3.03,8.06-2.34,1.71.58,4.43,8.82,8.24,8.61,2.39-.13,6.97-6.88,9.1-8.22,2.8.99,8.96,7.65,11.53,7.66s4.73-4.87,4.56-7.17ZM321.95,298.98c0-1.6-1.3-2.91-2.9-2.91s-2.9,1.3-2.9,2.91,1.3,2.91,2.9,2.91,2.9-1.3,2.9-2.91ZM327.98,298.63c0-1.48-1.2-2.68-2.68-2.68s-2.68,1.2-2.68,2.68,1.2,2.68,2.68,2.68,2.68-1.2,2.68-2.68ZM318.15,322.69c.9.96,4.19,2.81,5.49,3.38,14.54,6.44,34.25-5.01,32.25-21.7-.74-6.18-9.01-9.77-14.16-5.98-6.3,4.64-7.93,13.26-18.24,12-2.78-.34-3.4-3.34-5.98-2.16-3.88,1.78-1.97,11.66.64,14.46Z"/>
        <path class="cls-18" d="M343.89,264.81c4.37-.37,21.36,11.18,21.13,14.6-2.1,1.06-3.22,2.63-2.91,5.06-.82.93-7.98-7.05-11.86-5.39-3.15,1.35-2.12,6.14-3.26,6.36-3.71-1.51-7.99-7.87-12.24-6.5-1.85.6-4.64,6.25-6.93,7.45-1.49-1.16-2.02-3.19-3.12-4.55-4.36-5.4-10.3-.61-15.82-.24-.73-.66,5.44-7.18,6.23-7.92,3.87-3.63,9.13-7.08,14.08-8.83,1.09.31,3.06,6.9,3.93,8.09,1.71,2.35,10-.48,11.28-2.58s-.19-3.59-.51-5.55Z"/>
        <path class="cls-16" d="M339.5,242.33c.37,3.55-1.97,6.7-2.32,10.25-.25,2.53-.16,6.52,0,9.1.12,1.82,2.23,5.79-.48,6-.6-1.97-1.66-3.74-2.17-5.75-.94-3.72-.23-13.09.97-16.79.18-.57,1.33-2.94,1.67-3.15l2.33.34Z"/>
        <path class="cls-15" d="M358.25,615.47l-5.43,1.5-.76-1.74c.04-2.05,7.45-3.79,6.2.24Z"/>
        <path class="cls-17" d="M317.02,613.09c-.37,1.71.68,2.79.96,4.31l-5.27-.48c-.72-.78,3.89-4.35,4.31-3.83Z"/>
        <path class="cls-2" d="M318.15,322.69c-2.61-2.8-4.52-12.68-.64-14.46,2.58-1.18,3.2,1.82,5.98,2.16,10.31,1.26,11.94-7.36,18.24-12,5.15-3.79,13.41-.2,14.16,5.98,2.01,16.69-17.71,28.14-32.25,21.7-1.3-.57-4.59-2.42-5.49-3.38ZM328.6,317.51c6.47,2.81,13.32-2.47,17.45-7.12.73-.82,1.03-1.79,1.66-2.65s2.57-1.75,2.05-2.96c-.76-1.78-2.59-2.67-4.44-1.83-1.71.79-5.74,7.18-8.16,9.11-2.57,2.06-5.39,2.96-8.59,3.64l.02,1.81Z"/>
        <circle class="cls-12" cx="319.05" cy="298.98" r="2.9"/>
        <circle class="cls-12" cx="325.3" cy="298.63" r="2.68"/>
        <path class="cls-6" d="M328.6,317.51l-.02-1.81c3.2-.68,6.02-1.58,8.59-3.64,2.41-1.93,6.44-8.32,8.16-9.11,1.84-.85,3.67.05,4.44,1.83.52,1.21-1.4,2.08-2.05,2.96s-.93,1.83-1.66,2.65c-4.13,4.64-10.98,9.93-17.45,7.12Z"/>
      </g>
    </g>
    <g>
      <path class="cls-10" d="M306.64,196.52c-1.32-3.01-4.22-5.39-5.84-7.83-.81-1.21-2.32-6.12-3.25-6.34-18.53,6.03-38.54,5.63-56.51-2.01l-11.29,19.95c-8.25,5.35-6.33-6.08-6.73-10.56-.18-2.03-1.18-4.04-1.39-5.8-.38-3.21.4-6.6-.27-9.8-22.52-12.64-33.67-37.5-14.4-59.01,27.99-31.24,100.92-30.5,128.55.96,21.01,23.92,5.14,49.89-19.68,61.41-1.19,4.56,1.28,18.88-1.45,22.06-3.01,3.51-5.57-1.55-7.73-3.03ZM309.35,188.53v-13.19c0-2.29,5.5-4.03,7.34-5.13,39.79-23.98,21.43-56.39-15.6-67.67-24.42-7.44-57.06-5.76-78.98,8.08-21.13,13.35-26.29,35.11-6.02,52.48,3.16,2.71,9.67,5.88,11.46,9.16,1.06,1.94.03,7.89.33,10.71.09.87,1.09,5.33,1.63,5.56,2.2-3.98,4.32-8.42,7.23-11.95.84-1.01,1.91-2.47,3.31-2.48,1.16,0,7.67,2.71,9.74,3.26,13.64,3.6,26.57,4.2,40.39.86,3.23-.78,9.24-4.32,11.73-1.66s2.99,10.05,7.45,11.97Z"/>
      <path class="cls-14" d="M309.35,188.53c-4.46-1.92-5.02-9.38-7.45-11.97s-8.49.88-11.73,1.66c-13.82,3.33-26.75,2.74-40.39-.86-2.07-.55-8.58-3.27-9.74-3.26-1.4,0-2.47,1.47-3.31,2.48-2.91,3.53-5.03,7.97-7.23,11.95-.54-.24-1.54-4.7-1.63-5.56-.3-2.82.73-8.77-.33-10.71-1.79-3.28-8.3-6.45-11.46-9.16-20.27-17.37-15.11-39.12,6.02-52.48,21.92-13.85,54.56-15.53,78.98-8.08,37.04,11.29,55.4,43.69,15.6,67.67-1.83,1.1-7.34,2.84-7.34,5.13v13.19ZM289.1,119.55c-5.06.62-12.67,8.56-15.96,12.37-3.03-4.7-17.56-14.63-20.49-5.62-3.67,11.29,11.51,19.46,16.13,27.26.43.73.34,1.79.81,2.55,1.33,2.11,4.39,1.17,5.95-.19,2.63-2.29,6.41-8.08,9.09-11.05,1.35-1.49,3.3-2.66,4.81-4.3,4.8-5.21,9.12-10.5,5.27-17.75-1.23-2.31-2.92-3.6-5.62-3.27Z"/>
      <g>
        <path class="cls-19" d="M289.1,119.55c2.7-.33,4.39.95,5.62,3.27,3.85,7.26-.46,12.54-5.27,17.75-1.51,1.64-3.47,2.81-4.81,4.3-2.68,2.97-6.47,8.77-9.09,11.05-1.56,1.36-4.62,2.3-5.95.19-.48-.76-.38-1.81-.81-2.55-4.62-7.8-19.8-15.97-16.13-27.26,2.93-9.01,17.47.92,20.49,5.62,3.28-3.81,10.9-11.75,15.96-12.37ZM289.67,126.18c-.81-.2-1.39.22-2.06.54-1.75.84-9.79,7.53-10.6,9.07-.94,1.78-.34,4.55-3.47,4.64-2.85.08-3.18-2.89-4.47-4.43-2.27-2.7-6.65-6.77-10.31-6.97-1.53-.08-.02,3.33.32,4.01,2.34,4.74,7.23,8.32,10.73,11.81.84.84,2.3,3.89,3.34,3.89l15.51-16.66c1.37-1.83,1.97-3.73,1.02-5.9Z"/>
        <path class="cls-7" d="M289.67,126.18c.95,2.17.36,4.08-1.02,5.9l-15.51,16.66c-1.04,0-2.5-3.05-3.34-3.89-3.5-3.49-8.39-7.08-10.73-11.81-.34-.68-1.85-4.09-.32-4.01,3.66.2,8.04,4.27,10.31,6.97,1.3,1.54,1.63,4.52,4.47,4.43,3.13-.09,2.54-2.86,3.47-4.64.81-1.54,8.85-8.23,10.6-9.07.67-.32,1.25-.74,2.06-.54Z"/>
      </g>
    </g>
  </g>
</svg>